<svg width="1440" height="1024" viewBox="0 0 1440 1024" fill="none" xmlns="http://www.w3.org/2000/svg">
<rect width="1440" height="1024" fill="white"/>
<path d="M601.354 170.104C596.675 170.104 591.989 170.104 587.31 170.104C581.609 170.109 577.03 166.234 577.018 161.346C577 154.075 577 146.804 577 139.533C577.012 134.949 580.216 131.204 584.919 130.299C585.846 130.121 586.814 130.025 587.764 130.025C596.793 130 605.828 130.02 614.857 130C620.982 129.99 625.567 133.982 625.615 139.123C625.679 146.551 625.679 153.979 625.597 161.407C625.561 164.761 623.685 167.382 620.262 168.961C618.816 169.629 617.04 170.013 615.388 170.064C610.714 170.211 606.028 170.115 601.343 170.115L601.354 170.104ZM588.478 149.759C588.502 150.062 588.549 150.341 588.549 150.619C588.549 153.275 588.531 155.932 588.531 158.588C588.531 159.853 589.21 160.455 590.661 160.47C592.544 160.491 594.421 160.491 596.303 160.47C598.073 160.45 598.693 159.914 598.717 158.396C598.74 156.782 598.74 155.173 598.728 153.559C598.728 152.764 599.177 152.4 600.08 152.4C600.853 152.4 601.626 152.395 602.405 152.39C603.331 152.385 603.727 152.769 603.715 153.564C603.685 155.239 603.691 156.913 603.715 158.593C603.733 159.873 604.4 160.46 605.881 160.476C607.799 160.496 609.717 160.496 611.634 160.465C613.246 160.44 613.824 159.939 613.83 158.558C613.847 155.932 613.853 153.311 613.83 150.685C613.824 149.997 614.078 149.713 614.904 149.536C615.476 149.415 616.178 148.929 616.344 148.479C616.491 148.074 616.149 147.33 615.736 147.016C611.463 143.727 607.126 140.504 602.818 137.251C601.579 136.315 600.989 136.244 599.761 137.16C596.539 139.563 593.341 141.997 590.148 144.431C588.938 145.352 587.723 146.273 586.584 147.254C585.569 148.124 586.058 149.379 587.451 149.632C587.77 149.688 588.094 149.718 588.49 149.769L588.478 149.759Z" fill="#033393"/>
<path d="M606.518 157.97C606.518 156.468 606.518 155.081 606.518 153.7C606.518 150.917 605.332 150.193 602.682 149.854C601.402 149.692 600.027 149.834 598.74 150.042C596.922 150.335 595.907 151.484 595.854 153.072C595.807 154.398 595.789 155.724 595.819 157.049C595.831 157.722 595.601 158.077 594.751 157.986C594.497 157.96 594.237 157.986 593.978 157.986C592.29 157.986 591.438 157.245 591.423 155.764C591.405 153.614 591.399 151.468 591.387 149.318C591.387 149.222 591.428 149.111 591.387 149.035C590.325 147.284 591.924 146.479 593.104 145.564C595.583 143.631 598.103 141.738 600.593 139.821C601.03 139.487 601.366 139.477 601.821 139.821C604.936 142.184 608.076 144.521 611.174 146.894C611.386 147.056 611.422 147.466 611.392 147.755C611.345 148.245 611.086 148.731 611.086 149.217C611.068 151.711 611.097 154.206 611.115 156.7C611.127 157.965 611.133 157.97 609.705 157.97C608.713 157.97 607.722 157.97 606.53 157.97H606.518Z" fill="#033393"/>
<g clip-path="url(#clip0_1_2)">
<path d="M562.154 19.8045C568.286 19.8045 573.463 23.2541 573.463 27.3393C573.463 31.4245 568.286 34.8741 562.154 34.8741C556.022 34.8741 550.846 31.4245 550.846 27.3393C550.846 23.2541 556.022 19.8045 562.154 19.8045ZM562.154 17C554.508 17 548.309 21.6274 548.309 27.3393C548.309 33.0511 554.508 37.6786 562.154 37.6786C569.8 37.6786 576 33.0511 576 27.3393C576 21.6274 569.8 17 562.154 17Z" fill="#033393"/>
<path d="M555.175 33.7318L537 45.147" stroke="#033393" stroke-width="3" stroke-miterlimit="10"/>
</g>
<path d="M724.792 173.293C722.261 173.415 720.052 172.924 718.34 171.249C717.369 170.298 716.687 169.169 716.6 167.803C716.497 166.199 717.129 165.288 718.842 165.086C720.249 164.919 721.705 164.939 723.123 165.066C724.274 165.172 725.124 165.885 725.473 166.938C725.681 167.565 726.057 167.687 726.679 167.656C729.095 167.535 731.211 165.931 731.833 163.214C732.329 161.038 732.351 158.771 732.574 156.539C732.585 156.428 732.547 156.276 732.471 156.2C731.189 154.935 731.587 153.493 732.122 152.137C732.318 151.646 733.027 151.211 733.611 150.999C734.21 150.781 734.401 150.518 734.401 149.982C734.396 146.849 734.429 143.722 734.374 140.59C734.369 140.261 733.97 139.816 733.627 139.629C732.056 138.774 732.367 137.377 732.356 136.077C732.345 135.171 732.951 134.639 733.769 134.27C734.925 133.754 736.932 134.002 737.777 134.806C738.028 135.044 738.295 135.373 738.323 135.677C738.399 136.522 738.47 137.397 738.301 138.212C738.197 138.703 737.728 139.3 737.254 139.507C736.441 139.861 736.299 140.347 736.31 141.071C736.348 144.011 736.348 146.951 736.348 149.896C736.348 150.422 736.452 150.756 737.014 151.12C737.663 151.54 738.301 152.254 738.481 152.942C738.753 153.984 738.83 155.128 738.028 156.13C737.766 156.453 737.641 156.934 737.63 157.349C737.575 159.09 737.581 160.825 737.586 162.566C737.592 168.537 732.863 173.091 726.422 173.298C725.844 173.319 725.266 173.298 724.803 173.298L724.792 173.293ZM724.366 171.32C724.508 171.376 724.601 171.441 724.694 171.446C730.256 171.811 735.001 168.932 735.558 163.477C735.743 161.66 735.645 159.818 735.607 157.987C735.607 157.718 735.219 157.46 735.012 157.192C734.827 157.43 734.527 157.648 734.483 157.906C734.134 159.955 733.981 162.04 733.491 164.054C732.716 167.221 729.858 169.291 726.39 169.458C724.944 169.529 724.628 169.807 724.372 171.315L724.366 171.32ZM720.914 166.958V166.933C720.44 166.933 719.965 166.953 719.491 166.928C718.749 166.882 718.444 167.125 718.547 167.859C718.722 169.083 720.156 170.728 721.449 170.976C721.705 171.026 722.174 170.814 722.299 170.596C722.725 169.852 723.079 169.063 723.39 168.269C723.723 167.414 723.347 166.973 722.338 166.958C721.863 166.948 721.389 166.958 720.914 166.958ZM735.138 152.608C733.943 152.593 733.649 152.815 733.638 153.761C733.616 155.001 733.938 155.33 735.192 155.34C736.348 155.35 736.654 155.102 736.665 154.131C736.676 152.79 736.512 152.628 735.143 152.608H735.138Z" fill="#033393"/>
<path d="M714.212 145.291C717.042 145.291 719.867 145.291 722.698 145.291C726.417 145.291 729.586 147.791 729.946 151.237C730.12 152.881 730.066 154.597 729.76 156.226C729.22 159.11 726.226 161.357 723.069 161.352C721.492 161.352 719.916 161.058 718.335 160.902C718.133 160.881 717.915 160.821 717.735 160.876C715.177 161.615 712.608 161.63 710.018 161.038C709.778 160.982 709.5 161.079 709.243 161.084C707.285 161.104 705.273 161.408 703.386 161.074C700.435 160.552 698.265 157.931 698.058 155.047C697.959 153.671 697.965 152.244 698.248 150.903C698.881 147.887 701.521 145.205 705.524 145.301C706.985 145.337 708.452 145.291 709.92 145.286C711.348 145.286 712.783 145.286 714.212 145.286V145.296V145.291ZM713.999 147.138V147.204C710.934 147.204 707.869 147.163 704.804 147.219C702.939 147.254 701.619 148.191 700.752 149.699C699.721 151.495 699.765 153.423 700.108 155.33C700.255 156.165 700.686 157.02 701.204 157.724C702.612 159.616 704.798 159.642 706.985 159.591C708.005 159.566 708.676 159.151 709.172 158.311C709.92 157.041 710.639 155.725 711.616 154.612C713.061 152.967 715.526 153.19 716.699 154.936C717.037 155.442 717.353 155.968 717.626 156.509C718.647 158.533 720.354 159.544 722.747 159.54C725.697 159.53 727.901 157.607 728.064 154.845C728.13 153.742 728.119 152.628 728.037 151.53C727.846 149.096 725.523 147.143 722.889 147.143C719.927 147.143 716.96 147.143 713.999 147.143V147.138ZM713.71 159.51V159.495C714.392 159.495 715.073 159.52 715.75 159.49C716.699 159.444 716.851 159.217 716.464 158.432C716.121 157.744 715.75 157.071 715.373 156.398C714.708 155.199 713.345 155.113 712.559 156.266C712.019 157.066 711.583 157.926 711.103 158.761C710.836 159.227 710.989 159.5 711.561 159.51C712.276 159.525 712.99 159.51 713.704 159.51H713.71Z" fill="#033393"/>
<path d="M701.901 186.941C701.013 186.712 700.576 186.164 700.591 185.297L700.65 181.602V181.538C700.671 181.394 700.793 181.296 701.015 181.242L701.058 181.231L701.235 181.199C701.364 181.199 701.429 181.253 701.429 181.36L701.482 182.521L701.477 182.837L701.439 183.229C701.411 183.58 701.393 183.836 701.386 183.998L701.354 185.437C701.346 185.67 701.427 185.851 701.595 185.979C701.764 186.108 702.041 186.173 702.428 186.173V187C702.231 187 702.055 186.98 701.901 186.941ZM703.335 185.308L703.099 185.458L703.056 185.469C702.92 185.469 702.852 185.313 702.852 185.002C702.852 184.898 702.868 184.809 702.9 184.733L702.884 184.653C702.884 184.574 702.943 184.535 703.062 184.535C703.284 184.424 703.59 184.302 703.98 184.169C704.42 184.019 704.789 183.944 705.086 183.944C705.588 183.944 705.983 184.037 706.273 184.223C706.589 184.424 706.78 184.698 706.848 185.045L706.875 185.201L706.88 185.351C706.905 185.953 706.553 186.463 705.822 186.882C705.686 186.961 705.591 187 705.538 187C705.484 187 705.434 186.982 705.387 186.946L705.328 186.957C705.307 186.957 705.28 186.948 705.248 186.93C704.983 186.776 704.578 186.459 704.034 185.979L704.023 186.017C703.908 186.318 703.672 186.565 703.314 186.758C703.171 186.833 703.02 186.894 702.863 186.941C702.759 186.97 702.61 186.987 702.417 186.995L702.197 187V186.178L702.562 186.173C702.752 186.169 702.933 186.107 703.104 185.985C703.266 185.87 703.355 185.688 703.373 185.437L703.378 185.356L703.335 185.308ZM705.495 186.092L705.624 186.006C705.964 185.792 706.134 185.537 706.134 185.244L706.112 185.099C706.055 184.855 705.795 184.733 705.333 184.733C705.018 184.733 704.637 184.803 704.189 184.943L704.077 184.98L704.093 185.023L704.377 185.276L704.791 185.604L705.495 186.092ZM714.427 185.308L714.384 185.356L714.405 185.475L713.739 186.017C713.166 186.49 712.76 186.794 712.52 186.93C712.491 186.948 712.463 186.957 712.434 186.957L712.375 186.946C712.332 186.982 712.284 187 712.23 187C712.076 187 711.845 186.866 711.537 186.597C711.097 186.21 710.876 185.799 710.876 185.362C710.876 185.262 710.891 185.156 710.919 185.045C711.098 184.311 711.684 183.944 712.676 183.944C712.919 183.944 713.265 184.012 713.712 184.148C714.124 184.277 714.455 184.406 714.706 184.535C714.824 184.535 714.883 184.574 714.883 184.653L714.862 184.733C714.894 184.809 714.91 184.898 714.91 185.002C714.91 185.313 714.844 185.469 714.711 185.469L714.663 185.458L714.427 185.308ZM712.268 186.092C712.382 186.006 712.457 185.951 712.493 185.926C712.583 185.865 712.649 185.822 712.692 185.797L712.971 185.604C713.182 185.446 713.327 185.331 713.406 185.26C713.528 185.156 713.616 185.077 713.669 185.023L713.686 184.98L713.578 184.943C713.421 184.893 713.315 184.862 713.261 184.852C712.96 184.773 712.683 184.733 712.429 184.733C711.963 184.733 711.704 184.855 711.65 185.099L711.634 185.238C711.634 185.535 711.802 185.792 712.139 186.006L712.268 186.092ZM716.237 187.935L716.419 187.961L716.597 187.983C716.819 187.983 717.05 187.929 717.29 187.822C717.529 187.714 717.696 187.611 717.789 187.51C718.04 187.245 718.187 186.961 718.229 186.656C718.244 186.606 718.251 186.547 718.251 186.479L718.256 186.296L718.24 185.979L718.176 185.63C718.111 185.276 718.02 185.022 717.902 184.868C717.827 184.746 717.789 184.63 717.789 184.519C717.789 184.393 717.836 184.271 717.929 184.153C718.022 184.035 718.129 183.976 718.251 183.976C718.333 183.987 718.389 184.012 718.417 184.051C718.654 184.363 718.829 184.751 718.944 185.217C718.972 185.331 718.999 185.478 719.024 185.657C719.046 185.818 719.057 185.971 719.057 186.114C719.057 186.304 719.042 186.493 719.014 186.683C718.935 187.227 718.716 187.682 718.358 188.047C717.986 188.427 717.531 188.645 716.994 188.703C716.779 188.724 716.622 188.733 716.521 188.729L716.344 188.724C716.23 188.721 716.149 188.715 716.103 188.708C715.82 188.658 715.633 188.597 715.544 188.525C715.479 188.457 715.447 188.348 715.447 188.198L715.463 188.015C715.499 187.843 715.551 187.757 715.619 187.757C715.701 187.757 715.804 187.779 715.925 187.822L716.237 187.935ZM721.506 186.941C720.618 186.712 720.181 186.164 720.195 185.297L720.254 181.602V181.538C720.276 181.394 720.398 181.296 720.62 181.242L720.663 181.231L720.84 181.199C720.969 181.199 721.033 181.253 721.033 181.36L721.087 182.521L721.082 182.837L721.044 183.229C721.015 183.58 720.997 183.836 720.99 183.998L720.958 185.437C720.951 185.67 721.031 185.851 721.2 185.979C721.368 186.108 721.646 186.173 722.032 186.173V187C721.835 187 721.66 186.98 721.506 186.941ZM723.251 183.981C723.473 184.125 723.704 184.374 723.944 184.728C724.252 185.172 724.406 185.612 724.406 186.049C724.406 186.311 724.331 186.531 724.181 186.71C724.02 186.903 723.812 187 723.558 187H721.801V186.173H723.558C723.558 185.485 723.246 184.977 722.623 184.647C722.562 184.626 722.532 184.574 722.532 184.492C722.532 184.366 722.593 184.243 722.714 184.121C722.84 183.996 722.965 183.933 723.09 183.933C723.148 183.933 723.201 183.949 723.251 183.981ZM722.634 188.004C722.634 187.875 722.675 187.773 722.757 187.698C722.843 187.627 722.94 187.591 723.047 187.591C723.162 187.591 723.259 187.63 723.337 187.709C723.42 187.791 723.461 187.89 723.461 188.004C723.461 188.115 723.42 188.212 723.337 188.294C723.255 188.377 723.158 188.418 723.047 188.418C722.936 188.418 722.84 188.377 722.757 188.294C722.675 188.212 722.634 188.115 722.634 188.004ZM725.776 187.935L725.958 187.961L726.136 187.983C726.358 187.983 726.589 187.929 726.829 187.822C727.069 187.714 727.235 187.611 727.328 187.51C727.579 187.245 727.726 186.961 727.769 186.656C727.783 186.606 727.79 186.547 727.79 186.479L727.795 186.296L727.779 185.979L727.715 185.63C727.65 185.276 727.559 185.022 727.441 184.868C727.366 184.746 727.328 184.63 727.328 184.519C727.328 184.393 727.375 184.271 727.468 184.153C727.561 184.035 727.668 183.976 727.79 183.976C727.872 183.987 727.928 184.012 727.957 184.051C728.193 184.363 728.368 184.751 728.483 185.217C728.512 185.331 728.538 185.478 728.563 185.657C728.585 185.818 728.596 185.971 728.596 186.114C728.596 186.304 728.581 186.493 728.553 186.683C728.474 187.227 728.256 187.682 727.897 188.047C727.525 188.427 727.07 188.645 726.533 188.703C726.318 188.724 726.161 188.733 726.061 188.729L725.883 188.724C725.769 188.721 725.688 188.715 725.642 188.708C725.359 188.658 725.173 188.597 725.083 188.525C725.019 188.457 724.986 188.348 724.986 188.198L725.002 188.015C725.038 187.843 725.09 187.757 725.158 187.757C725.241 187.757 725.343 187.779 725.464 187.822L725.776 187.935ZM730.588 184.078C730.914 183.981 731.274 183.933 731.668 183.933C732.355 183.933 732.946 184.092 733.44 184.411C733.698 184.579 733.94 184.818 734.166 185.125C734.42 185.476 734.547 185.784 734.547 186.049C734.547 186.304 734.472 186.524 734.321 186.71C734.16 186.903 733.954 187 733.704 187H730.202C730.091 187 729.971 186.961 729.842 186.882C729.781 186.814 729.75 186.73 729.75 186.629C729.75 186.565 729.761 186.497 729.783 186.425L729.831 186.307L729.917 186.173H733.698C733.605 185.911 733.487 185.691 733.344 185.512C732.982 185.061 732.463 184.816 731.786 184.776L731.453 184.76C731.242 184.75 730.993 184.782 730.707 184.857L730.637 184.868C730.536 184.868 730.451 184.823 730.379 184.733C730.311 184.64 730.277 184.544 730.277 184.443C730.277 184.261 730.381 184.139 730.588 184.078Z" fill="#033393"/>
<path d="M507.139 164.361C508.65 162.828 510.592 163.223 512.409 163.122C512.74 163.101 513.135 162.848 513.359 162.61C515.218 160.571 517.762 159.615 520.635 159.236C521.379 159.139 521.55 158.917 521.55 158.345C521.538 154.773 521.544 151.2 521.574 147.628C521.574 146.955 521.373 146.586 520.512 146.733C519.178 146.96 517.856 147.239 516.516 147.406C515.914 147.482 515.177 147.476 514.663 147.249C512.209 146.151 509.777 146.034 507.234 147.006C506.52 147.279 505.729 147.947 504.909 147.269C504.141 146.642 504.838 145.964 505.05 145.336C507.122 139.153 513.69 135.055 520.771 134.513C520.842 134.508 520.936 134.528 520.99 134.498C523.338 133.263 525.498 134.665 527.605 135.06C531.984 135.884 535.572 138.05 537.932 141.394C538.965 142.862 539.62 144.532 540.352 146.141C540.505 146.475 540.387 147.122 540.11 147.315C539.826 147.512 539.124 147.446 538.705 147.294C535.825 146.252 532.987 145.888 530.119 147.35C529.747 147.537 529.127 147.446 528.638 147.38C527.292 147.198 525.958 146.955 524.619 146.748C523.911 146.637 523.616 146.91 523.616 147.527C523.627 151.165 523.627 154.798 523.616 158.436C523.616 158.993 523.863 159.301 524.524 159.433C526.661 159.858 528.484 160.754 529.989 162.135C530.237 162.363 530.679 162.479 531.057 162.54C533.04 162.863 535.046 163.116 537.011 163.501C537.389 163.577 537.855 164.113 537.897 164.467C537.962 165.054 537.33 165.247 536.728 165.166C535.277 164.968 533.831 164.731 532.385 164.493C529.6 164.032 526.879 164.331 524.212 165.044C523.468 165.242 522.76 165.348 522.453 164.614C522.117 163.805 522.784 163.501 523.58 163.314C524.696 163.056 525.799 162.757 527.145 162.413C525.014 161.093 522.825 160.657 520.588 161.047C519.095 161.305 517.708 162.069 516.316 162.671C515.631 162.965 515.248 163.455 515.372 164.214C515.478 164.898 514.894 165.13 514.168 165.135C512.268 165.156 510.361 165.166 508.461 165.211C507.6 165.231 507.145 164.948 507.151 164.366L507.139 164.361ZM516.452 145.675C520.588 144.441 524.524 144.572 528.59 145.493C528.466 144.673 528.431 144.076 528.284 143.499C527.587 140.706 526.183 138.278 523.362 136.578C522.748 136.208 522.199 136.173 521.674 136.598C520.824 137.291 519.939 137.964 519.219 138.753C517.455 140.696 516.764 142.983 516.446 145.675H516.452ZM537.489 144.855C536.87 141.202 530.738 137.175 527.162 137.078C527.174 137.17 527.15 137.286 527.209 137.342C529.145 139.391 530.042 141.799 530.485 144.355C530.585 144.926 530.957 144.926 531.517 144.866C532.892 144.724 534.279 144.613 535.666 144.572C536.262 144.557 536.864 144.749 537.495 144.85L537.489 144.855ZM507.8 144.466C509.86 144.613 511.843 144.78 513.831 144.866C514.061 144.876 514.492 144.486 514.534 144.248C514.947 141.895 515.944 139.75 517.478 137.777C517.62 137.595 517.685 137.362 517.803 137.104C514.085 137.286 508.355 141.44 507.794 144.461L507.8 144.466Z" fill="#033393"/>
<path d="M508.243 181.261C508.29 181.085 508.372 180.981 508.49 180.949L508.635 180.933C508.811 180.933 509.047 180.987 509.344 181.094C510.06 181.348 510.418 181.744 510.418 182.281C510.418 183.005 509.872 183.513 508.78 183.807C508.419 183.903 508.014 183.964 507.566 183.989C507.43 183.996 507.28 184 507.115 184C506.052 184 505.296 183.739 504.849 183.216C504.677 183.012 504.591 182.772 504.591 182.496C504.591 182.124 504.786 181.818 505.176 181.578C505.47 181.395 505.771 181.304 506.079 181.304H506.175L506.267 181.32C506.417 181.338 506.487 181.418 506.476 181.562L506.471 181.647V181.696C506.446 181.889 506.385 182.006 506.288 182.045C506.134 182.045 505.937 182.07 505.697 182.12C505.457 182.17 505.337 182.301 505.337 182.512C505.337 182.763 505.636 182.954 506.234 183.087C506.435 183.13 506.616 183.153 506.777 183.157L507.545 183.173C508.003 183.184 508.438 183.135 508.85 183.028C509.355 182.892 509.607 182.704 509.607 182.464C509.607 182.17 509.351 181.952 508.839 181.809L508.721 181.792L508.544 181.744C508.311 181.708 508.195 181.633 508.195 181.519L508.243 181.261ZM507.583 179.617C507.583 179.728 507.541 179.825 507.459 179.907C507.377 179.99 507.28 180.031 507.169 180.031C507.062 180.031 506.965 179.991 506.879 179.913C506.797 179.83 506.755 179.732 506.755 179.617C506.755 179.503 506.795 179.406 506.874 179.327C506.952 179.245 507.051 179.204 507.169 179.204C507.28 179.204 507.377 179.245 507.459 179.327C507.541 179.41 507.583 179.506 507.583 179.617C507.583 179.499 507.622 179.401 507.701 179.322C507.783 179.243 507.882 179.204 507.996 179.204C508.107 179.204 508.204 179.245 508.286 179.327C508.368 179.41 508.41 179.506 508.41 179.617C508.41 179.728 508.368 179.825 508.286 179.907C508.204 179.99 508.107 180.031 507.996 180.031C507.889 180.031 507.792 179.991 507.706 179.913C507.624 179.83 507.583 179.732 507.583 179.617ZM512.857 183.173H513.969C513.969 182.693 513.863 182.355 513.652 182.158L512.857 183.173ZM514.817 183.055C514.817 183.323 514.731 183.549 514.56 183.731C514.391 183.91 514.196 184 513.974 184H511.987L511.708 183.173H511.965L513.045 181.905C512.644 181.658 512.309 181.237 512.041 180.643C511.887 180.299 511.777 179.975 511.713 179.671C511.641 179.341 511.605 179.003 511.605 178.656V178.624L511.616 178.468C511.627 178.425 511.656 178.384 511.702 178.344C511.752 178.305 511.838 178.267 511.96 178.231L511.998 178.226C512.116 178.208 512.191 178.199 512.223 178.199C512.306 178.199 512.354 178.255 512.368 178.366L512.374 178.409C512.567 179.948 512.966 180.869 513.571 181.169L513.582 178.634C513.582 178.498 513.627 178.398 513.716 178.333L513.813 178.28L513.958 178.231L513.996 178.226L514.157 178.21C514.282 178.21 514.345 178.296 514.345 178.468L514.35 178.527L514.361 180.654C514.361 180.776 514.33 180.928 514.27 181.11C514.244 181.193 514.21 181.313 514.167 181.47C514.601 181.861 514.817 182.389 514.817 183.055ZM518.298 185.047C517.911 185.445 517.46 185.663 516.944 185.703L516.708 185.719L516.45 185.724H516.192L516.053 185.708C515.784 185.676 515.598 185.615 515.494 185.525C515.43 185.468 515.397 185.361 515.397 185.203C515.397 184.931 515.455 184.784 515.569 184.763C515.659 184.763 515.759 184.782 515.87 184.822L516.187 184.935L516.37 184.967L516.547 184.983C516.733 184.994 516.957 184.944 517.218 184.833C517.458 184.729 517.63 184.621 517.734 184.51C517.945 184.285 518.051 184.066 518.051 183.855C517.306 183.554 516.644 183.171 516.063 182.706C516.021 182.688 515.994 182.645 515.983 182.577C515.926 182.552 515.877 182.5 515.838 182.421C515.809 182.324 515.797 182.219 515.8 182.104L515.806 181.835C515.806 181.76 515.813 181.674 515.827 181.578C515.935 180.84 516.253 180.417 516.783 180.31L517.003 180.289C517.401 180.256 517.802 180.489 518.207 180.987C518.232 180.987 518.335 181.139 518.518 181.443C518.726 181.787 518.847 182.049 518.883 182.228L518.964 182.663C518.985 182.766 518.996 182.919 518.996 183.119C518.996 183.932 518.763 184.575 518.298 185.047ZM518.185 183.06C518.185 182.265 517.947 181.644 517.471 181.196C517.374 181.103 517.274 181.057 517.17 181.057L517.122 181.062C516.982 181.08 516.862 181.168 516.762 181.325C516.679 181.461 516.635 181.667 516.627 181.943L516.617 182.131C516.746 182.22 517 182.382 517.379 182.614C517.53 182.682 517.678 182.761 517.825 182.851L518.185 183.06ZM518.771 183.173H519.657V184H518.771V183.173ZM527.832 184C527.241 184 526.772 183.803 526.424 183.409C526.156 183.098 526.021 182.77 526.021 182.426C526.021 182.19 526.109 182.072 526.285 182.072C526.485 182.072 526.661 182.213 526.811 182.496L527.042 182.926C527.167 183.09 527.431 183.173 527.832 183.173V184ZM526.972 183.055C526.972 183.305 526.895 183.524 526.741 183.71C526.576 183.907 526.371 184.005 526.124 184.005H521.773L521.751 184.279C521.741 184.491 521.61 184.596 521.359 184.596C521.094 184.596 520.965 184.457 520.973 184.177L520.978 184H519.431V183.173H521.069C521.069 182.485 520.758 181.977 520.135 181.647C520.074 181.626 520.043 181.574 520.043 181.492C520.043 181.366 520.104 181.243 520.226 181.121C520.351 180.996 520.477 180.933 520.602 180.933C520.659 180.933 520.713 180.949 520.763 180.981C521.064 181.178 521.35 181.517 521.623 181.997C522.174 181.288 522.985 180.933 524.056 180.933C524.765 180.933 525.366 181.094 525.86 181.417C526.118 181.585 526.36 181.823 526.585 182.131C526.843 182.478 526.972 182.786 526.972 183.055ZM526.118 183.173C526.021 182.904 525.903 182.684 525.764 182.512C525.581 182.279 525.347 182.097 525.06 181.964C524.777 181.832 524.442 181.766 524.056 181.766C523.325 181.766 522.754 182.014 522.342 182.512C522.21 182.673 522.092 182.894 521.988 183.173H526.118ZM528.9 182.249L528.884 181.164L528.9 180.111C528.9 179.821 529.015 179.676 529.244 179.676L529.276 179.682H529.314L529.352 179.692C529.534 179.692 529.704 179.825 529.862 180.09L529.899 180.149L530.206 180.799L530.635 181.809C530.753 182.152 531.015 182.797 531.419 183.742L532.134 185.251L532.145 185.348C532.145 185.445 532.094 185.493 531.994 185.493C531.933 185.493 531.862 185.488 531.779 185.477L531.736 185.472C531.461 185.432 531.282 185.298 531.199 185.069L531.172 185.004L529.609 181.03C529.609 181.288 529.572 181.529 529.497 181.755C529.475 181.816 529.438 181.896 529.384 181.997C529.237 182.283 529.108 182.426 528.997 182.426C528.936 182.426 528.904 182.367 528.9 182.249ZM527.606 183.173H533.09V184H527.606V183.173ZM533.998 182.308L533.761 182.458L533.718 182.469C533.582 182.469 533.514 182.313 533.514 182.002C533.514 181.898 533.53 181.809 533.562 181.733L533.546 181.653C533.546 181.574 533.605 181.535 533.724 181.535C533.946 181.424 534.252 181.302 534.642 181.169C535.083 181.019 535.451 180.944 535.749 180.944C536.25 180.944 536.646 181.037 536.936 181.223C537.251 181.424 537.442 181.698 537.51 182.045L537.537 182.201L537.542 182.351C537.568 182.953 537.215 183.463 536.484 183.882C536.348 183.961 536.253 184 536.2 184C536.146 184 536.096 183.982 536.049 183.946L535.99 183.957C535.969 183.957 535.942 183.948 535.91 183.93C535.645 183.776 535.24 183.459 534.696 182.979L534.685 183.017C534.57 183.318 534.334 183.565 533.976 183.758C533.833 183.833 533.682 183.894 533.525 183.941C533.421 183.97 533.272 183.987 533.079 183.995L532.859 184V183.178L533.224 183.173C533.414 183.169 533.595 183.107 533.767 182.985C533.928 182.87 534.017 182.688 534.035 182.437L534.041 182.356L533.998 182.308ZM536.157 183.092L536.286 183.006C536.626 182.792 536.796 182.537 536.796 182.244L536.774 182.099C536.717 181.855 536.458 181.733 535.996 181.733C535.681 181.733 535.299 181.803 534.852 181.943L534.739 181.98L534.755 182.023L535.04 182.276L535.453 182.604L536.157 183.092Z" fill="#033393"/>
<path d="M843.341 151.543C840.555 151.543 837.776 151.563 834.991 151.538C833.288 151.523 832.595 151.032 832.296 149.559C831.264 144.439 830.25 139.308 829.28 134.177C828.925 132.3 828.338 131.779 826.252 131.794C825.232 131.804 824.211 131.809 823.191 131.83C822.554 131.845 821.968 131.668 822.001 131.045C822.03 130.489 822.396 129.998 823.197 130.008C824.713 130.018 826.23 129.973 827.741 130.028C829.161 130.079 830.537 131.207 830.836 132.508C831.05 133.434 831.236 134.365 831.36 135.306C831.45 135.979 831.698 136.292 832.544 136.292C840.223 136.267 847.901 136.272 855.58 136.277C856.037 136.277 856.505 136.277 856.939 136.368C857.92 136.571 858.241 137.112 857.988 137.987C856.877 141.797 855.766 145.613 854.656 149.428C854.176 151.062 853.466 151.543 851.583 151.538C848.837 151.538 846.086 151.538 843.341 151.538V151.553V151.543ZM832.009 138.225C832.025 138.473 832.014 138.6 832.042 138.716C832.713 142.005 833.435 145.289 834.038 148.588C834.207 149.519 834.636 149.767 835.628 149.762C840.77 149.721 845.917 149.701 851.059 149.762C852.198 149.777 852.632 149.367 852.88 148.487C853.443 146.498 854.052 144.52 854.639 142.541C855.056 141.14 855.473 139.733 855.924 138.225H832.003H832.009Z" fill="#033393"/>
<path d="M840.651 157.159C840.617 159.248 838.92 160.782 836.676 160.741C834.449 160.701 832.775 159.097 832.792 157.027C832.809 155.17 834.725 153.511 836.84 153.516C838.976 153.516 840.685 155.15 840.651 157.164V157.159ZM838.706 157.23C838.717 156.142 837.854 155.307 836.721 155.307C835.582 155.307 834.737 156.121 834.725 157.219C834.72 158.161 835.588 158.945 836.67 158.965C837.843 158.985 838.689 158.262 838.706 157.23Z" fill="#033393"/>
<path d="M857.525 157.219C857.485 159.183 855.664 160.802 853.544 160.761C851.357 160.721 849.62 159.107 849.654 157.149C849.688 155.155 851.487 153.495 853.561 153.541C855.788 153.592 857.57 155.241 857.525 157.219ZM855.58 157.108C855.557 156.167 854.576 155.307 853.527 155.312C852.484 155.312 851.532 156.248 851.537 157.265C851.537 158.176 852.58 159.026 853.646 158.985C854.717 158.945 855.613 158.08 855.585 157.108H855.58Z" fill="#033393"/>
<path d="M831.451 178C831.229 178 831.016 177.973 830.812 177.919C830.607 177.862 830.428 177.773 830.274 177.651C830.11 177.884 829.889 178 829.614 178H826.117C826.085 178 826.013 177.986 825.902 177.957C825.859 177.943 825.811 177.918 825.757 177.882C825.693 177.817 825.661 177.733 825.661 177.629C825.661 177.565 825.671 177.497 825.693 177.425L825.747 177.307C825.768 177.261 825.797 177.216 825.833 177.173H829.608C829.526 176.926 829.408 176.706 829.254 176.512C828.889 176.061 828.369 175.816 827.696 175.776L827.363 175.76C827.249 175.753 827 175.785 826.617 175.857L826.552 175.868C826.448 175.868 826.362 175.825 826.294 175.739C826.226 175.653 826.192 175.554 826.192 175.443C826.192 175.257 826.294 175.135 826.499 175.078C826.832 174.981 827.191 174.933 827.578 174.933C828.262 174.933 828.853 175.092 829.351 175.411C829.709 175.644 829.974 175.914 830.146 176.222L830.296 176.485C830.421 176.711 830.547 176.876 830.672 176.979C830.876 177.108 831.136 177.173 831.451 177.173V178ZM832.675 174.981C832.897 175.125 833.128 175.374 833.368 175.728C833.676 176.172 833.83 176.612 833.83 177.049C833.83 177.311 833.755 177.531 833.604 177.71C833.443 177.903 833.236 178 832.981 178H831.225V177.173H832.981C832.981 176.485 832.67 175.977 832.047 175.647C831.986 175.626 831.956 175.574 831.956 175.492C831.956 175.366 832.016 175.243 832.138 175.121C832.264 174.996 832.389 174.933 832.514 174.933C832.571 174.933 832.625 174.949 832.675 174.981ZM831.854 179.004C831.854 178.897 831.893 178.799 831.972 178.709C832.058 178.63 832.156 178.591 832.267 178.591C832.382 178.591 832.478 178.632 832.557 178.714C832.639 178.797 832.681 178.893 832.681 179.004C832.681 179.115 832.639 179.212 832.557 179.294C832.475 179.377 832.378 179.418 832.267 179.418C832.153 179.418 832.054 179.377 831.972 179.294C831.893 179.216 831.854 179.119 831.854 179.004ZM832.681 179.004C832.681 178.897 832.72 178.799 832.799 178.709C832.885 178.63 832.983 178.591 833.094 178.591C833.209 178.591 833.306 178.632 833.384 178.714C833.467 178.797 833.508 178.893 833.508 179.004C833.508 179.115 833.467 179.212 833.384 179.294C833.302 179.377 833.205 179.418 833.094 179.418C832.98 179.418 832.881 179.377 832.799 179.294C832.72 179.216 832.681 179.119 832.681 179.004ZM839.024 178C838.619 178 838.286 177.921 838.025 177.764C837.921 178.297 837.694 178.736 837.343 179.08C836.992 179.423 836.55 179.631 836.016 179.703C835.962 179.71 835.862 179.715 835.715 179.719L835.527 179.724L835.119 179.708C834.858 179.672 834.673 179.611 834.566 179.525C834.501 179.468 834.469 179.359 834.469 179.198C834.469 179.033 834.491 178.91 834.534 178.827C834.566 178.784 834.602 178.761 834.641 178.757C834.723 178.757 834.826 178.779 834.947 178.822L835.259 178.935L835.329 178.94C835.375 178.944 835.411 178.951 835.436 178.961L835.619 178.983C835.808 178.983 836.021 178.936 836.258 178.843C836.508 178.75 836.693 178.639 836.811 178.51C837.123 178.177 837.278 177.773 837.278 177.296C837.278 177.082 837.251 176.86 837.198 176.63L837.096 176.211C837.071 176.097 837.019 175.986 836.94 175.878C836.854 175.757 836.811 175.637 836.811 175.519C836.811 175.382 836.854 175.263 836.94 175.159C837.029 175.051 837.14 174.99 837.273 174.976C837.345 174.976 837.4 175.001 837.439 175.051C837.64 175.323 837.814 175.712 837.96 176.217C838.007 176.371 838.036 176.53 838.046 176.695L838.138 176.861C838.22 176.972 838.367 177.058 838.578 177.119C838.718 177.155 838.866 177.173 839.024 177.173V178ZM840.093 176.249L840.077 175.164L840.093 174.111C840.093 173.821 840.207 173.676 840.437 173.676L840.469 173.682H840.506L840.544 173.692C840.727 173.692 840.897 173.825 841.054 174.09L841.092 174.149L841.398 174.799L841.828 175.809C841.946 176.152 842.207 176.797 842.612 177.742L843.326 179.251L843.337 179.348C843.337 179.445 843.287 179.493 843.187 179.493C843.126 179.493 843.054 179.488 842.972 179.477L842.929 179.472C842.653 179.432 842.474 179.298 842.392 179.069L842.365 179.004L840.802 175.03C840.802 175.288 840.764 175.529 840.689 175.755C840.667 175.816 840.63 175.896 840.576 175.997C840.429 176.283 840.3 176.426 840.189 176.426C840.129 176.426 840.096 176.367 840.093 176.249ZM838.798 177.173H843.326C843.38 177.194 843.453 177.257 843.546 177.361L843.562 177.447C843.562 177.551 843.541 177.651 843.498 177.748L843.46 177.823C843.428 177.873 843.383 177.932 843.326 178H838.798V177.173ZM840.023 172.672C840.023 172.557 840.062 172.461 840.141 172.382C840.223 172.299 840.322 172.258 840.437 172.258C840.548 172.258 840.644 172.299 840.727 172.382C840.809 172.464 840.85 172.561 840.85 172.672C840.85 172.783 840.809 172.88 840.727 172.962C840.644 173.044 840.548 173.085 840.437 173.085C840.329 173.085 840.232 173.046 840.146 172.967C840.064 172.885 840.023 172.786 840.023 172.672ZM853.429 178C853.207 178 852.994 177.973 852.79 177.919C852.586 177.862 852.407 177.773 852.253 177.651C852.088 177.884 851.868 178 851.592 178H848.096C848.063 178 847.992 177.986 847.881 177.957C847.838 177.943 847.79 177.918 847.736 177.882C847.671 177.817 847.639 177.733 847.639 177.629C847.639 177.565 847.65 177.497 847.671 177.425L847.725 177.307C847.747 177.261 847.775 177.216 847.811 177.173H851.587C851.505 176.926 851.386 176.706 851.232 176.512C850.867 176.061 850.348 175.816 849.675 175.776L849.342 175.76C849.227 175.753 848.978 175.785 848.595 175.857L848.531 175.868C848.427 175.868 848.341 175.825 848.273 175.739C848.205 175.653 848.171 175.554 848.171 175.443C848.171 175.257 848.273 175.135 848.477 175.078C848.81 174.981 849.17 174.933 849.557 174.933C850.241 174.933 850.831 175.092 851.329 175.411C851.687 175.644 851.952 175.914 852.124 176.222L852.274 176.485C852.4 176.711 852.525 176.876 852.65 176.979C852.854 177.108 853.114 177.173 853.429 177.173V178ZM854.036 179.004C854.036 178.875 854.077 178.773 854.16 178.698C854.246 178.627 854.342 178.591 854.45 178.591C854.564 178.591 854.661 178.63 854.74 178.709C854.822 178.791 854.863 178.89 854.863 179.004C854.863 179.115 854.822 179.212 854.74 179.294C854.657 179.377 854.561 179.418 854.45 179.418C854.339 179.418 854.242 179.377 854.16 179.294C854.077 179.212 854.036 179.115 854.036 179.004ZM855.626 178C855.096 178 854.69 177.825 854.407 177.474C854.131 177.825 853.73 178 853.204 178V177.173C853.422 177.173 853.617 177.108 853.789 176.979C853.922 176.876 854.002 176.718 854.031 176.507L854.025 176.297V175.755C854.018 175.69 854.015 175.647 854.015 175.626C854.015 175.515 854 175.408 853.972 175.304L853.956 175.057L853.961 175.008C853.961 174.908 854.025 174.858 854.154 174.858L854.369 174.89C854.459 174.904 854.546 174.942 854.632 175.003C854.704 175.057 854.74 175.121 854.74 175.196L854.734 175.261V175.454L854.75 175.647L854.788 175.916C854.795 175.973 854.799 176.1 854.799 176.297V176.399L854.788 176.507C854.81 176.711 854.892 176.868 855.035 176.979L855.218 177.114L855.395 177.157L855.626 177.173V178ZM857.887 176.979C857.569 177.66 857.078 178 856.416 178H855.395V177.173H856.346C856.643 177.173 856.901 177.026 857.119 176.732C857.302 176.485 857.393 176.253 857.393 176.034C857.393 175.988 857.389 175.957 857.382 175.943L856.985 175.008C856.985 174.947 857.044 174.922 857.162 174.933L857.296 174.944L857.35 174.96C857.615 175.017 857.764 175.073 857.796 175.126L857.823 175.18C857.866 175.32 857.916 175.456 857.973 175.588C857.998 175.642 858.056 175.769 858.145 175.97C858.209 176.12 858.333 176.382 858.516 176.754L858.8 177.345C859.083 176.596 859.33 175.837 859.542 175.067L859.563 175.035C859.584 174.964 859.649 174.931 859.756 174.938L859.977 174.96L860.036 174.971C860.236 175.01 860.336 175.058 860.336 175.116L860.331 175.153V175.196C860.242 175.526 860.139 175.852 860.025 176.174L860.583 177.345C860.866 176.596 861.113 175.837 861.325 175.067L861.346 175.035C861.368 174.964 861.432 174.931 861.54 174.938L861.76 174.96L861.819 174.971C862.019 175.01 862.12 175.058 862.12 175.116L862.114 175.153V175.196C861.95 175.819 861.765 176.367 861.561 176.84C861.532 176.915 861.502 176.994 861.47 177.076C861.459 177.105 861.403 177.221 861.303 177.425C861.235 177.569 861.156 177.706 861.067 177.839L861.056 177.86C860.992 177.953 860.897 178 860.771 178L860.589 177.979L860.514 177.962C860.335 177.937 860.206 177.878 860.127 177.785L860.105 177.753C860.048 177.685 859.914 177.445 859.703 177.033C859.549 177.381 859.409 177.649 859.284 177.839L859.273 177.86C859.208 177.953 859.114 178 858.988 178L858.806 177.979L858.725 177.962C858.55 177.937 858.423 177.878 858.344 177.785L858.322 177.753C858.251 177.649 858.106 177.391 857.887 176.979Z" fill="#033393"/>
<g clip-path="url(#clip1_1_2)">
<path d="M1347 37.5111C1347.47 26.6212 1356.73 17.6393 1370.67 15.4447C1379.97 13.9817 1388.11 16.1536 1394.91 21.2441C1400.96 25.7841 1404.12 31.3271 1403.99 37.6921C1403.83 45.6484 1399.61 52.1189 1390.45 56.5005C1380.85 61.0933 1371.09 61.0858 1361.48 56.9002C1354.6 53.9063 1350.23 49.223 1348.41 43.2954C1347.82 41.3874 1347.46 39.4342 1346.99 37.5036L1347 37.5111ZM1393.82 51.2064C1403.74 42.4885 1402.64 33.4387 1395.26 24.3965C1393.82 22.6393 1390.87 21.5458 1388.47 20.309C1383.81 17.8957 1378.48 17.1717 1373.02 17.6393C1362.55 18.5292 1353.78 24.3211 1351.01 33.2502C1348.79 40.407 1352.84 48.3256 1357.29 50.769C1359.85 43.5744 1366.22 40.1431 1375.82 40.1582C1385.57 40.1732 1391.46 43.9741 1393.83 51.214L1393.82 51.2064ZM1375.68 42.8354C1374.99 42.8354 1374.31 42.7826 1373.63 42.8429C1367.94 43.3256 1363.23 44.9621 1361.12 49.3889C1359.51 52.76 1359.49 53.582 1363.78 55.1431C1372.66 58.3708 1381.19 58.2125 1389.5 54.1476C1390.05 53.8761 1390.8 53.2125 1390.69 52.8957C1389.94 50.8444 1389.41 48.6348 1387.99 46.8625C1385.25 43.4462 1380.57 42.7826 1375.68 42.8354Z" fill="#033393"/>
<path d="M1385.57 30.5736C1385.65 34.9099 1381.27 38.3639 1375.6 38.4243C1370.39 38.4771 1365.75 34.8421 1365.67 30.649C1365.58 26.4182 1370.37 22.3835 1375.66 22.5344C1381.71 22.7003 1385.03 25.5962 1385.58 30.5736H1385.57ZM1375.44 35.8903C1380.5 35.928 1382.83 32.5419 1382.69 30.1814C1382.53 27.2553 1379.14 24.8119 1375.57 24.9552C1371.55 25.1211 1368.23 28.2508 1368.35 31.7425C1368.4 33.3338 1372.94 35.9808 1375.44 35.8828V35.8903Z" fill="#033393"/>
</g>
<path d="M1087.92 30C1086 30 1084.53 29.362 1083.5 28.0859C1082.48 29.362 1081.15 30 1079.54 30H1073.33C1071.36 30 1069.55 29.668 1067.9 29.0039C1065.4 28.0143 1064.15 26.5234 1064.15 24.5312C1064.15 23.1771 1064.86 22.0638 1066.28 21.1914C1067.35 20.5273 1068.44 20.1953 1069.56 20.1953H1069.91L1070.24 20.2539C1070.79 20.319 1071.04 20.612 1071 21.1328L1070.98 21.4453V21.6211C1070.89 22.3242 1070.67 22.7474 1070.32 22.8906C1069.76 22.8906 1069.04 22.9818 1068.17 23.1641C1067.3 23.3464 1066.86 23.8216 1066.86 24.5898C1066.86 25.5013 1067.95 26.1979 1070.12 26.6797C1070.85 26.8359 1071.51 26.9206 1072.1 26.9336L1074.89 26.9922H1079.54C1080.05 26.9922 1080.62 26.7578 1081.26 26.2891C1081.74 25.9245 1082.03 25.3516 1082.14 24.5703L1082.12 23.8086V23.3203L1082.06 21.4648C1082.06 21.0482 1082.01 20.612 1081.92 20.1562L1081.84 19.2969L1081.86 19.1211C1081.86 18.7565 1082.1 18.5742 1082.57 18.5742L1083.35 18.6914C1083.69 18.7435 1084 18.8737 1084.29 19.082C1084.57 19.2773 1084.71 19.5182 1084.71 19.8047L1084.7 20.0391V20.7812C1084.7 20.9505 1084.71 21.1784 1084.73 21.4648L1084.83 22.5391L1084.91 23.8086L1084.87 24.5703C1084.86 25.1562 1085.16 25.7292 1085.79 26.2891L1086.22 26.6016L1086.51 26.7969C1086.62 26.862 1086.81 26.9076 1087.1 26.9336L1087.92 26.9922V30ZM1075.03 14.0625C1075.03 14.4661 1074.88 14.8177 1074.58 15.1172C1074.28 15.4167 1073.93 15.5664 1073.52 15.5664C1073.13 15.5664 1072.78 15.4232 1072.47 15.1367C1072.17 14.8372 1072.02 14.4792 1072.02 14.0625C1072.02 13.6458 1072.16 13.2943 1072.45 13.0078C1072.74 12.7083 1073.09 12.5586 1073.52 12.5586C1073.93 12.5586 1074.28 12.7083 1074.58 13.0078C1074.88 13.3073 1075.03 13.6589 1075.03 14.0625C1075.03 13.6328 1075.17 13.2747 1075.46 12.9883C1075.76 12.7018 1076.11 12.5586 1076.53 12.5586C1076.93 12.5586 1077.29 12.7083 1077.59 13.0078C1077.89 13.3073 1078.04 13.6589 1078.04 14.0625C1078.04 14.4661 1077.89 14.8177 1077.59 15.1172C1077.29 15.4167 1076.93 15.5664 1076.53 15.5664C1076.14 15.5664 1075.79 15.4232 1075.48 15.1367C1075.18 14.8372 1075.03 14.4792 1075.03 14.0625ZM1102.21 26.543C1102.21 27.4805 1101.94 28.2812 1101.39 28.9453C1100.81 29.6484 1100.05 30 1099.13 30H1087.1V26.9922H1099.13C1099.13 24.987 1098.33 23.2422 1096.73 21.7578C1095.67 20.7682 1094.73 20.1888 1093.91 20.0195C1093.99 20.5664 1093.71 20.8398 1093.07 20.8398C1092.68 20.8398 1092.07 20.7096 1091.24 20.4492C1090.6 20.2279 1090.24 20.0716 1090.14 19.9805C1090.07 19.8763 1089.99 19.7526 1089.91 19.6094L1089.75 18.8672L1089.66 18.1641C1089.66 18.0339 1089.67 17.9492 1089.7 17.9102C1089.7 17.5065 1089.95 17.1615 1090.46 16.875L1090.54 16.7969L1096.55 13.0469C1099.13 11.4453 1101.09 10.1042 1102.43 9.02344C1102.51 8.9974 1102.65 8.96484 1102.86 8.92578C1103.11 8.9388 1103.37 9.1862 1103.66 9.66797L1103.72 9.78516C1103.98 10.1237 1104.11 10.4167 1104.11 10.6641C1104.11 10.9766 1104.06 11.1849 1103.97 11.2891C1102.12 13.138 1099.25 15.1367 1095.34 17.2852C1096.58 17.6628 1097.92 18.6328 1099.38 20.1953C1101.27 22.2266 1102.21 24.3424 1102.21 26.543ZM1109.09 33.3984L1109.75 33.4961L1110.4 33.5742C1111.21 33.5742 1112.05 33.3789 1112.92 32.9883C1113.79 32.5977 1114.4 32.2201 1114.73 31.8555C1115.65 30.8919 1116.18 29.8568 1116.34 28.75C1116.39 28.5677 1116.41 28.3529 1116.41 28.1055L1116.43 27.4414L1116.38 26.2891L1116.14 25.0195C1115.91 23.7305 1115.57 22.806 1115.14 22.2461C1114.87 21.8034 1114.73 21.3802 1114.73 20.9766C1114.73 20.5208 1114.9 20.0781 1115.24 19.6484C1115.58 19.2188 1115.97 19.0039 1116.41 19.0039C1116.71 19.043 1116.92 19.1341 1117.02 19.2773C1117.88 20.4102 1118.52 21.8229 1118.93 23.5156C1119.04 23.9323 1119.14 24.4661 1119.23 25.1172C1119.3 25.7031 1119.34 26.2565 1119.34 26.7773C1119.34 27.4674 1119.29 28.1576 1119.19 28.8477C1118.9 30.8268 1118.11 32.4805 1116.8 33.8086C1115.45 35.1888 1113.8 35.9831 1111.84 36.1914C1111.06 36.2695 1110.49 36.3021 1110.12 36.2891L1109.48 36.2695C1109.06 36.2565 1108.77 36.237 1108.6 36.2109C1107.57 36.0286 1106.9 35.8073 1106.57 35.5469C1106.34 35.2995 1106.22 34.9023 1106.22 34.3555L1106.28 33.6914C1106.41 33.0664 1106.6 32.7539 1106.84 32.7539C1107.14 32.7539 1107.51 32.832 1107.96 32.9883L1109.09 33.3984ZM1128.25 29.7852C1125.02 28.9518 1123.43 26.9596 1123.48 23.8086L1123.7 10.3711V10.1367C1123.78 9.61589 1124.22 9.25781 1125.03 9.0625L1125.18 9.02344L1125.83 8.90625C1126.3 8.90625 1126.53 9.10156 1126.53 9.49219L1126.73 13.7109L1126.71 14.8633L1126.57 16.2891C1126.47 17.5651 1126.4 18.4961 1126.38 19.082L1126.26 24.3164C1126.23 25.1628 1126.52 25.8203 1127.14 26.2891C1127.75 26.7578 1128.76 26.9922 1130.16 26.9922V30C1129.45 30 1128.81 29.9284 1128.25 29.7852ZM1133.46 23.8477L1132.61 24.3945L1132.45 24.4336C1131.95 24.4336 1131.71 23.8672 1131.71 22.7344C1131.71 22.3568 1131.77 22.0312 1131.88 21.7578L1131.82 21.4648C1131.82 21.1784 1132.04 21.0352 1132.47 21.0352C1133.28 20.6315 1134.39 20.1888 1135.81 19.707C1137.41 19.1602 1138.75 18.8867 1139.83 18.8867C1141.65 18.8867 1143.09 19.2253 1144.15 19.9023C1145.29 20.6315 1145.99 21.6276 1146.24 22.8906L1146.34 23.457L1146.36 24.0039C1146.45 26.1914 1145.16 28.0469 1142.51 29.5703C1142.01 29.8568 1141.67 30 1141.47 30C1141.28 30 1141.1 29.9349 1140.93 29.8047L1140.71 29.8438C1140.63 29.8438 1140.54 29.8112 1140.42 29.7461C1139.45 29.1862 1137.98 28.0339 1136 26.2891L1135.96 26.4258C1135.55 27.5195 1134.69 28.418 1133.39 29.1211C1132.87 29.3945 1132.32 29.6159 1131.75 29.7852C1131.37 29.8893 1130.83 29.9544 1130.12 29.9805L1129.32 30V27.0117L1130.65 26.9922C1131.34 26.9792 1132 26.7513 1132.62 26.3086C1133.21 25.8919 1133.54 25.2279 1133.6 24.3164L1133.62 24.0234L1133.46 23.8477ZM1141.32 26.6992L1141.79 26.3867C1143.02 25.6055 1143.64 24.681 1143.64 23.6133L1143.56 23.0859C1143.35 22.2005 1142.41 21.7578 1140.73 21.7578C1139.58 21.7578 1138.2 22.0117 1136.57 22.5195L1136.16 22.6562L1136.22 22.8125L1137.25 23.7305L1138.76 24.9219L1141.32 26.6992ZM1186.14 30C1184.6 30 1183.3 29.7005 1182.23 29.1016C1181.13 28.4766 1180.34 27.5846 1179.87 26.4258C1179.61 25.8008 1179.48 24.9284 1179.48 23.8086C1179.48 22.9232 1179.69 22.4805 1180.11 22.4805C1180.6 22.4805 1181.3 23.0924 1182.21 24.3164C1182.21 25.1497 1182.51 25.8073 1183.11 26.2891C1183.84 26.7578 1184.85 26.9922 1186.14 26.9922V30ZM1182.35 26.5039L1182.33 27.168C1182.32 27.4674 1182.29 27.7279 1182.23 27.9492C1182.2 28.1706 1182.11 28.5156 1181.98 28.9844C1181.93 29.2318 1181.8 29.6354 1181.59 30.1953C1180.22 33.3073 1177.51 35.2148 1173.45 35.918C1172.4 36.1003 1171.38 36.1914 1170.36 36.1914C1168.37 36.1914 1166.57 35.6836 1164.97 34.668C1163.43 33.6914 1162.4 32.7148 1161.86 31.7383C1161.23 30.5404 1160.91 29.1927 1160.91 27.6953C1160.91 26.6276 1161.32 25.3711 1162.14 23.9258C1162.55 23.1836 1163.3 22.487 1164.38 21.8359C1165.29 21.2891 1166.1 21.0156 1166.79 21.0156C1167.05 21.0156 1167.22 21.0286 1167.31 21.0547C1167.83 21.1719 1168.07 21.6341 1168.04 22.4414L1168.02 22.9492V23.2031C1168.02 23.5286 1167.94 23.8867 1167.78 24.2773L1166.3 24.9219C1165.24 25.3906 1164.57 25.9049 1164.29 26.4648C1164.04 26.9206 1163.91 27.3698 1163.91 27.8125C1163.91 29.1406 1164.65 30.2344 1166.12 31.0938C1167.59 31.9661 1169.53 32.4023 1171.92 32.4023C1173.95 32.4023 1175.63 31.9596 1176.96 31.0742C1177.39 30.7878 1177.98 30.2083 1178.72 29.3359L1179.25 27.7148L1178.78 12.5391L1178.91 9.64844C1178.91 9.28385 1179.16 9.10156 1179.66 9.10156L1180.34 9.19922L1180.52 9.23828C1181.39 9.35547 1181.87 9.71354 1181.96 10.3125L1181.94 10.5664L1181.92 13.1055L1181.82 18.2031L1182 20.625L1182.1 22.7539L1182.35 26.5039ZM1190.01 23.6328L1189.95 19.6875L1190.01 15.8594C1190.01 14.8047 1190.42 14.2773 1191.26 14.2773L1191.38 14.2969H1191.51L1191.65 14.3359C1192.31 14.3359 1192.93 14.8177 1193.5 15.7812L1193.64 15.9961L1194.75 18.3594L1196.32 22.0312C1196.75 23.2812 1197.7 25.625 1199.17 29.0625L1201.77 34.5508L1201.8 34.9023C1201.8 35.2539 1201.62 35.4297 1201.26 35.4297C1201.04 35.4297 1200.78 35.4102 1200.48 35.3711L1200.32 35.3516C1199.32 35.2083 1198.67 34.7201 1198.37 33.8867L1198.27 33.6523L1192.59 19.1992C1192.59 20.1367 1192.45 21.0156 1192.18 21.8359C1192.1 22.0573 1191.96 22.3503 1191.77 22.7148C1191.23 23.7565 1190.76 24.2773 1190.36 24.2773C1190.14 24.2773 1190.02 24.0625 1190.01 23.6328ZM1185.3 26.9922H1201.77C1201.96 27.0703 1202.23 27.2982 1202.57 27.6758L1202.62 27.9883C1202.62 28.3659 1202.55 28.7305 1202.39 29.082L1202.25 29.3555C1202.14 29.5378 1201.97 29.7526 1201.77 30H1185.3V26.9922ZM1211.73 29.7852C1208.5 28.9518 1206.91 26.9596 1206.96 23.8086L1207.18 10.3711V10.1367C1207.25 9.61589 1207.7 9.25781 1208.5 9.0625L1208.66 9.02344L1209.3 8.90625C1209.77 8.90625 1210.01 9.10156 1210.01 9.49219L1210.2 13.7109L1210.18 14.8633L1210.05 16.2891C1209.94 17.5651 1209.88 18.4961 1209.85 19.082L1209.73 24.3164C1209.71 25.1628 1210 25.8203 1210.61 26.2891C1211.23 26.7578 1212.23 26.9922 1213.64 26.9922V30C1212.92 30 1212.29 29.9284 1211.73 29.7852ZM1221.86 26.2891C1220.7 28.763 1218.92 30 1216.51 30H1212.8V26.9922H1216.26C1217.34 26.9922 1218.28 26.4583 1219.07 25.3906C1219.73 24.4922 1220.07 23.6458 1220.07 22.8516C1220.07 22.6823 1220.05 22.5716 1220.03 22.5195L1218.58 19.1211C1218.58 18.8997 1218.8 18.8086 1219.23 18.8477L1219.71 18.8867L1219.91 18.9453C1220.87 19.1536 1221.41 19.3555 1221.53 19.5508L1221.63 19.7461C1221.79 20.2539 1221.97 20.7487 1222.18 21.2305C1222.27 21.4258 1222.48 21.888 1222.8 22.6172C1223.04 23.1641 1223.48 24.1146 1224.15 25.4688L1225.18 27.6172C1226.21 24.8958 1227.11 22.1354 1227.88 19.3359L1227.96 19.2188C1228.04 18.9583 1228.27 18.8411 1228.66 18.8672L1229.46 18.9453L1229.68 18.9844C1230.4 19.1276 1230.77 19.3034 1230.77 19.5117L1230.75 19.6484V19.8047C1230.42 21.0026 1230.05 22.1875 1229.64 23.3594L1231.67 27.6172C1232.7 24.8958 1233.6 22.1354 1234.36 19.3359L1234.44 19.2188C1234.52 18.9583 1234.75 18.8411 1235.14 18.8672L1235.95 18.9453L1236.16 18.9844C1236.89 19.1276 1237.25 19.3034 1237.25 19.5117L1237.23 19.6484V19.8047C1236.64 22.0703 1235.96 24.0625 1235.22 25.7812C1235.12 26.0547 1235.01 26.3411 1234.89 26.6406C1234.85 26.7448 1234.65 27.168 1234.29 27.9102C1234.04 28.431 1233.75 28.9323 1233.43 29.4141L1233.39 29.4922C1233.15 29.8307 1232.81 30 1232.35 30L1231.69 29.9219L1231.41 29.8633C1230.76 29.7721 1230.29 29.5573 1230.01 29.2188L1229.93 29.1016C1229.72 28.8542 1229.23 27.9818 1228.46 26.4844C1227.9 27.7474 1227.4 28.724 1226.94 29.4141L1226.9 29.4922C1226.67 29.8307 1226.32 30 1225.87 30L1225.2 29.9219L1224.91 29.8633C1224.27 29.7721 1223.81 29.5573 1223.52 29.2188L1223.45 29.1016C1223.18 28.724 1222.66 27.7865 1221.86 26.2891Z" fill="white"/>
<rect y="942" width="1440" height="82" fill="#D9D9D9"/>
<g clip-path="url(#clip2_1_2)">
<path d="M99.9779 1000C97.6145 999.998 95.45 999.221 93.2878 998.48C90.4652 997.515 87.8963 996.033 85.5198 994.316C83.6286 992.952 81.8817 991.349 80.2813 989.662C78.7597 988.056 77.3648 986.295 76.171 984.443C73.8535 980.843 72.0804 977.036 71.9995 972.634C71.9646 970.592 72.8413 969.102 74.258 967.815C75.0057 967.133 75.8431 966.523 76.7154 966C78.635 964.853 80.1042 965.797 81.1799 967.398C82.2818 969.036 83.3531 970.697 84.4681 972.326C85.2093 973.409 85.1306 974.459 84.243 975.444C83.2547 976.539 82.2906 977.658 81.3614 978.8C80.7973 979.494 80.935 980.811 81.451 981.68C83.0995 984.456 85.3405 986.741 87.8198 988.778C89.0463 989.786 90.5658 990.469 92 991.216C92.7478 991.605 93.478 991.349 94.0989 990.785C95.098 989.877 96.1453 989.019 97.116 988.086C98.7623 986.502 99.4598 986.901 101.373 987.806C102.706 988.438 103.915 989.331 105.153 990.146C106.305 990.907 107.022 991.993 107.363 993.296C107.693 994.56 107.143 995.696 106.353 996.539C105.282 997.684 104.025 998.719 102.678 999.539C101.959 999.977 100.887 999.864 99.9757 1000H99.9779Z" fill="#033393"/>
<path d="M107.991 979.489C108.055 980.862 107.718 981.257 106.612 981.144C106.048 981.086 105.729 980.834 105.646 980.254C105.512 979.306 105.366 978.358 105.145 977.427C104.292 973.833 102.073 971.258 98.8701 969.379C96.9505 968.254 94.9063 967.656 92.6872 967.566C91.9242 967.534 91.4497 967.227 91.3994 966.424C91.3339 965.391 91.6705 964.978 92.7528 965C94.257 965.032 95.6934 965.301 97.1407 965.815C100.632 967.058 103.3 969.3 105.453 972.123C107.091 974.267 107.976 976.76 107.991 979.489Z" fill="#033393"/>
<path d="M101.242 979.776C101.327 980.967 101.126 981.264 100.345 981.311C99.3791 981.369 98.8391 980.965 98.8609 980.06C98.909 978.115 97.6847 976.872 96.3707 975.704C95.2273 974.688 93.8171 974.199 92.2757 974.113C91.5608 974.073 91.235 973.757 91.2656 973.054C91.3006 972.237 91.6832 971.637 92.3632 971.754C93.6334 971.974 94.954 972.224 96.093 972.777C97.6541 973.535 98.9112 974.773 99.8776 976.199C100.638 977.323 101.382 978.503 101.24 979.776H101.242Z" fill="#033393"/>
</g>
<g clip-path="url(#clip3_1_2)">
<path d="M475.003 984.443C475.003 981.503 475 978.559 475.003 975.619C475.014 969.715 479.717 965.054 485.757 965.026C491.936 964.994 498.119 964.991 504.298 965.026C510.103 965.06 514.884 969.63 514.95 975.289C515.023 981.42 515.014 987.551 514.95 993.683C514.895 999.001 510.463 1003.68 505.017 1003.84C498.334 1004.04 491.637 1004.05 484.954 1003.84C479.394 1003.68 475.026 998.907 475.006 993.481C474.994 990.469 475.006 987.455 475.006 984.443H475.003ZM511.548 984.48C511.548 981.537 511.563 978.596 511.545 975.653C511.519 971.512 508.367 968.373 504.106 968.339C498.034 968.293 491.962 968.287 485.89 968.339C481.63 968.376 478.434 971.464 478.391 975.624C478.327 981.508 478.33 987.392 478.391 993.276C478.434 997.488 481.636 1000.56 485.969 1000.59C491.968 1000.63 497.967 1000.63 503.967 1000.59C508.381 1000.56 511.501 997.499 511.548 993.199C511.577 990.293 511.554 987.386 511.551 984.48H511.548Z" fill="#033393"/>
<path d="M511.551 984.478C511.551 987.384 511.577 990.29 511.545 993.197C511.501 997.494 508.378 1000.56 503.964 1000.59C497.965 1000.62 491.965 1000.63 485.966 1000.59C481.633 1000.56 478.431 997.485 478.388 993.273C478.327 987.39 478.324 981.506 478.388 975.622C478.434 971.461 481.627 968.37 485.888 968.336C491.96 968.285 498.031 968.291 504.103 968.336C508.364 968.367 511.513 971.507 511.542 975.65C511.563 978.591 511.545 981.534 511.548 984.478H511.551ZM494.847 995.048C500.861 995.122 505.834 990.418 505.901 984.588C505.968 978.807 501.044 973.938 495.071 973.879C489.185 973.819 484.291 978.488 484.189 984.261C484.085 990.202 488.798 994.974 494.844 995.051L494.847 995.048ZM507.968 974.004C507.962 972.849 506.91 971.831 505.729 971.84C504.534 971.845 503.493 972.844 503.478 974.001C503.461 975.215 504.534 976.248 505.778 976.216C506.988 976.188 507.974 975.193 507.968 974.004Z" fill="#D9D9D9"/>
<path d="M494.847 995.048C488.801 994.971 484.087 990.199 484.192 984.258C484.294 978.485 489.185 973.816 495.074 973.876C501.047 973.935 505.97 978.804 505.904 984.585C505.837 990.415 500.864 995.122 494.85 995.045L494.847 995.048ZM502.199 984.457C502.199 980.607 498.93 977.445 494.961 977.462C490.994 977.476 487.754 980.641 487.754 984.503C487.754 988.376 490.977 991.533 494.952 991.55C498.974 991.567 502.199 988.41 502.199 984.457Z" fill="#033393"/>
<path d="M507.968 974.003C507.974 975.192 506.991 976.19 505.778 976.216C504.531 976.244 503.461 975.212 503.478 974C503.493 972.843 504.534 971.845 505.729 971.839C506.91 971.833 507.962 972.848 507.968 974.003Z" fill="#033393"/>
<path d="M502.199 984.458C502.199 988.411 498.974 991.567 494.952 991.55C490.976 991.533 487.751 988.377 487.754 984.503C487.754 980.641 490.997 977.476 494.961 977.462C498.93 977.448 502.199 980.607 502.199 984.458Z" fill="#D9D9D9"/>
</g>
<g clip-path="url(#clip4_1_2)">
<path d="M1390 979.469C1389.4 988.08 1384.52 994.667 1376.85 1000.04C1376.16 1000.52 1375.37 1000.91 1374.7 1001.41C1373.56 1002.25 1372.5 1002.13 1371.36 1001.44C1363.27 996.505 1357.89 990.137 1356.23 981.844C1354.72 974.275 1360.76 966.739 1369.43 965.291C1378.43 963.788 1387.08 968.253 1389.51 975.745C1389.91 976.973 1389.85 978.301 1390 979.475V979.469ZM1387.82 979.42C1387.99 975.948 1386.44 973.013 1383.54 970.595C1379.1 966.887 1372.5 965.922 1366.89 968.05C1361.22 970.2 1357.8 975.01 1358.28 980.297C1358.94 987.586 1363.41 993.197 1369.82 997.942C1372.99 1000.28 1373.03 1000.35 1376.12 998.051C1382.84 993.06 1387.48 987.148 1387.82 979.425V979.42Z" fill="#033393"/>
<path d="M1387.82 979.419C1387.48 987.142 1382.84 993.054 1376.12 998.045C1373.03 1000.34 1372.99 1000.28 1369.82 997.936C1363.41 993.197 1358.94 987.586 1358.28 980.297C1357.8 975.009 1361.22 970.205 1366.89 968.049C1372.49 965.921 1379.1 966.886 1383.54 970.594C1386.44 973.013 1387.99 975.947 1387.82 979.419ZM1380.37 979.117C1380.4 975.635 1377.24 973.002 1373.06 973.029C1368.92 973.057 1365.56 975.772 1365.58 979.079C1365.6 982.238 1368.98 985.052 1372.87 985.129C1376.9 985.211 1380.35 982.447 1380.37 979.117Z" fill="#D9D9D9"/>
<path d="M1380.38 979.118C1380.35 982.447 1376.9 985.211 1372.88 985.129C1368.99 985.047 1365.61 982.238 1365.59 979.079C1365.57 975.777 1368.93 973.057 1373.07 973.03C1377.25 973.002 1380.41 975.635 1380.38 979.118ZM1378.1 979.107C1378.16 976.946 1375.79 974.927 1373.14 974.867C1370.47 974.812 1368.05 976.721 1367.98 978.937C1367.92 981.169 1370.16 983.171 1372.82 983.264C1375.62 983.357 1378.04 981.449 1378.1 979.107Z" fill="#033393"/>
<path d="M1378.1 979.107C1378.04 981.449 1375.61 983.358 1372.81 983.264C1370.15 983.177 1367.91 981.175 1367.98 978.937C1368.04 976.727 1370.46 974.813 1373.13 974.867C1375.78 974.922 1378.16 976.946 1378.1 979.107Z" fill="#D9D9D9"/>
</g>
<path d="M144.773 985.379C144.773 986.29 144.311 986.746 143.387 986.746H141.844C140.919 986.746 140.457 986.29 140.457 985.379V983.191C140.457 982.267 140.913 981.805 141.824 981.805H143.406C144.318 981.805 144.773 982.267 144.773 983.191V985.379ZM160.809 977.332C160.809 980.158 159.35 981.57 156.434 981.57H152.527V992H148.23V971.961H152.527V977.41L153.816 977.391C155.014 977.378 155.704 977.326 155.887 977.234C156.303 977.039 156.512 976.466 156.512 975.516V971.922H160.809V977.332ZM168.582 992H164.285V972.156H168.582V992ZM186.442 998.16H168.522V995.6H186.442V998.16ZM202.41 977.332C202.41 980.158 200.952 981.57 198.035 981.57H194.129V992H189.832V971.961H194.129V977.41L195.418 977.391C196.616 977.378 197.306 977.326 197.488 977.234C197.905 977.039 198.113 976.466 198.113 975.516V971.922H202.41V977.332ZM218.465 977.332C218.465 980.158 217.007 981.57 214.09 981.57H210.184V992H205.887V971.961H210.184V977.41L211.473 977.391C212.671 977.378 213.361 977.326 213.543 977.234C213.96 977.039 214.168 976.466 214.168 975.516V971.922H218.465V977.332ZM234.656 992H230.32V978.25C230.32 977.326 230.027 976.746 229.441 976.512C229.155 976.395 228.53 976.336 227.566 976.336L221.883 976.316V972.156H230.34C233.217 972.156 234.656 973.543 234.656 976.316V992ZM250.828 992H246.492V978.25C246.492 977.326 246.199 976.746 245.613 976.512C245.327 976.395 244.702 976.336 243.738 976.336L238.055 976.316V972.156H246.512C249.389 972.156 250.828 973.543 250.828 976.316V992ZM269.656 972.293L267.742 982.625C267.117 986.023 266.629 988.159 266.277 989.031C265.418 991.18 264.031 992.254 262.117 992.254C260.203 992.254 258.797 991.18 257.898 989.031C257.612 988.341 257.098 986.206 256.355 982.625L254.227 972.293H258.387L262.117 988.055L265.359 972.293H269.656ZM288.484 972.293L286.57 982.625C285.945 986.023 285.457 988.159 285.105 989.031C284.246 991.18 282.859 992.254 280.945 992.254C279.031 992.254 277.625 991.18 276.727 989.031C276.44 988.341 275.926 986.206 275.184 982.625L273.055 972.293H277.215L280.945 988.055L284.188 972.293H288.484ZM307.312 992H303.016L299.773 976.238L296.043 992H291.883L294.012 981.668C294.689 978.4 295.249 976.264 295.691 975.262C296.642 973.113 298.003 972.039 299.773 972.039C301.688 972.039 303.074 973.113 303.934 975.262C304.285 976.134 304.773 978.27 305.398 981.668L307.312 992ZM326.141 992H321.844L318.602 976.238L314.871 992H310.711L312.84 981.668C313.517 978.4 314.077 976.264 314.52 975.262C315.47 973.113 316.831 972.039 318.602 972.039C320.516 972.039 321.902 973.113 322.762 975.262C323.113 976.134 323.602 978.27 324.227 981.668L326.141 992Z" fill="#033393"/>
<path d="M971.832 996.398L972.496 996.496L973.141 996.574C973.948 996.574 974.788 996.379 975.66 995.988C976.533 995.598 977.138 995.22 977.477 994.855C978.388 993.892 978.922 992.857 979.078 991.75C979.13 991.568 979.156 991.353 979.156 991.105L979.176 990.441L979.117 989.289L978.883 988.02C978.648 986.73 978.316 985.806 977.887 985.246C977.613 984.803 977.477 984.38 977.477 983.977C977.477 983.521 977.646 983.078 977.984 982.648C978.323 982.219 978.714 982.004 979.156 982.004C979.456 982.043 979.658 982.134 979.762 982.277C980.621 983.41 981.259 984.823 981.676 986.516C981.78 986.932 981.878 987.466 981.969 988.117C982.047 988.703 982.086 989.257 982.086 989.777C982.086 990.467 982.034 991.158 981.93 991.848C981.643 993.827 980.849 995.48 979.547 996.809C978.193 998.189 976.539 998.983 974.586 999.191C973.805 999.27 973.232 999.302 972.867 999.289L972.223 999.27C971.806 999.257 971.513 999.237 971.344 999.211C970.315 999.029 969.638 998.807 969.312 998.547C969.078 998.299 968.961 997.902 968.961 997.355L969.02 996.691C969.15 996.066 969.339 995.754 969.586 995.754C969.885 995.754 970.257 995.832 970.699 995.988L971.832 996.398ZM990.992 992.785C987.763 991.952 986.174 989.96 986.227 986.809L986.441 973.371V973.137C986.52 972.616 986.962 972.258 987.77 972.062L987.926 972.023L988.57 971.906C989.039 971.906 989.273 972.102 989.273 972.492L989.469 976.711L989.449 977.863L989.312 979.289C989.208 980.565 989.143 981.496 989.117 982.082L989 987.316C988.974 988.163 989.267 988.82 989.879 989.289C990.491 989.758 991.5 989.992 992.906 989.992V993C992.19 993 991.552 992.928 990.992 992.785ZM1000.88 993C998.948 993 997.47 992.362 996.441 991.086C995.439 992.362 993.98 993 992.066 993V989.992C992.861 989.992 993.57 989.758 994.195 989.289C994.677 988.911 994.97 988.339 995.074 987.57L995.055 986.809V984.836C995.029 984.602 995.016 984.445 995.016 984.367C995.016 983.964 994.964 983.573 994.859 983.195L994.801 982.297L994.82 982.121C994.82 981.757 995.055 981.574 995.523 981.574L996.305 981.691C996.63 981.743 996.949 981.88 997.262 982.102C997.522 982.297 997.652 982.531 997.652 982.805L997.633 983.039V983.742L997.691 984.445L997.828 985.422C997.854 985.63 997.867 986.092 997.867 986.809V987.18L997.828 987.57C997.906 988.312 998.206 988.885 998.727 989.289L999.391 989.777L1000.04 989.934L1000.88 989.992V993ZM994.996 977.062C994.996 976.646 995.133 976.307 995.406 976.047C995.732 975.721 996.096 975.559 996.5 975.559C996.904 975.559 997.255 975.708 997.555 976.008C997.854 976.294 998.004 976.646 998.004 977.062C998.004 977.466 997.854 977.818 997.555 978.117C997.255 978.417 996.904 978.566 996.5 978.566C996.109 978.566 995.758 978.417 995.445 978.117C995.146 977.818 994.996 977.466 994.996 977.062ZM1015.15 989.543C1015.15 990.48 1014.88 991.281 1014.33 991.945C1013.75 992.648 1012.99 993 1012.07 993H1000.04V989.992H1012.07C1012.07 987.987 1011.27 986.242 1009.66 984.758C1008.61 983.768 1007.67 983.189 1006.85 983.02C1006.93 983.566 1006.65 983.84 1006.01 983.84C1005.62 983.84 1005.01 983.71 1004.18 983.449C1003.54 983.228 1003.17 983.072 1003.08 982.98C1003 982.876 1002.93 982.753 1002.85 982.609L1002.69 981.867L1002.59 981.164C1002.59 981.034 1002.61 980.949 1002.63 980.91C1002.63 980.507 1002.89 980.161 1003.39 979.875L1003.47 979.797L1009.49 976.047C1012.07 974.445 1014.03 973.104 1015.37 972.023C1015.45 971.997 1015.59 971.965 1015.8 971.926C1016.04 971.939 1016.31 972.186 1016.6 972.668L1016.66 972.785C1016.92 973.124 1017.05 973.417 1017.05 973.664C1017.05 973.977 1017 974.185 1016.91 974.289C1015.06 976.138 1012.18 978.137 1008.28 980.285C1009.51 980.663 1010.86 981.633 1012.32 983.195C1014.21 985.227 1015.15 987.342 1015.15 989.543ZM1026.11 992.785C1022.88 991.952 1021.29 989.96 1021.34 986.809L1021.56 973.371V973.137C1021.64 972.616 1022.08 972.258 1022.89 972.062L1023.04 972.023L1023.69 971.906C1024.16 971.906 1024.39 972.102 1024.39 972.492L1024.59 976.711L1024.57 977.863L1024.43 979.289C1024.33 980.565 1024.26 981.496 1024.23 982.082L1024.12 987.316C1024.09 988.163 1024.38 988.82 1025 989.289C1025.61 989.758 1026.62 989.992 1028.02 989.992V993C1027.31 993 1026.67 992.928 1026.11 992.785ZM1030.21 996.652C1030.21 996.184 1030.36 995.812 1030.66 995.539C1030.97 995.279 1031.32 995.148 1031.71 995.148C1032.13 995.148 1032.48 995.292 1032.77 995.578C1033.07 995.878 1033.22 996.236 1033.22 996.652C1033.22 997.056 1033.07 997.408 1032.77 997.707C1032.47 998.007 1032.12 998.156 1031.71 998.156C1031.31 998.156 1030.96 998.007 1030.66 997.707C1030.36 997.408 1030.21 997.056 1030.21 996.652ZM1035.99 993C1034.07 993 1032.59 992.362 1031.56 991.086C1030.56 992.362 1029.1 993 1027.18 993V989.992C1027.98 989.992 1028.69 989.758 1029.31 989.289C1029.79 988.911 1030.09 988.339 1030.19 987.57L1030.17 986.809V984.836C1030.15 984.602 1030.13 984.445 1030.13 984.367C1030.13 983.964 1030.08 983.573 1029.98 983.195L1029.92 982.297L1029.94 982.121C1029.94 981.757 1030.17 981.574 1030.64 981.574L1031.42 981.691C1031.75 981.743 1032.07 981.88 1032.38 982.102C1032.64 982.297 1032.77 982.531 1032.77 982.805L1032.75 983.039V983.742L1032.81 984.445L1032.95 985.422C1032.97 985.63 1032.98 986.092 1032.98 986.809V987.18L1032.95 987.57C1033.02 988.312 1033.32 988.885 1033.84 989.289L1034.51 989.777L1035.15 989.934L1035.99 989.992V993ZM1040.43 982.023C1041.23 982.544 1042.07 983.449 1042.95 984.738C1044.07 986.353 1044.62 987.954 1044.62 989.543C1044.62 990.493 1044.35 991.294 1043.8 991.945C1043.22 992.648 1042.46 993 1041.54 993H1035.15V989.992H1041.54C1041.54 987.492 1040.41 985.643 1038.14 984.445C1037.92 984.367 1037.81 984.178 1037.81 983.879C1037.81 983.423 1038.03 982.974 1038.47 982.531C1038.93 982.076 1039.38 981.848 1039.84 981.848C1040.05 981.848 1040.24 981.906 1040.43 982.023ZM1037.44 996.652C1037.44 996.262 1037.58 995.904 1037.87 995.578C1038.18 995.292 1038.54 995.148 1038.94 995.148C1039.36 995.148 1039.71 995.298 1040 995.598C1040.3 995.897 1040.45 996.249 1040.45 996.652C1040.45 997.056 1040.3 997.408 1040 997.707C1039.7 998.007 1039.35 998.156 1038.94 998.156C1038.52 998.156 1038.17 998.007 1037.87 997.707C1037.58 997.421 1037.44 997.069 1037.44 996.652ZM1040.45 996.652C1040.45 996.262 1040.59 995.904 1040.88 995.578C1041.19 995.292 1041.55 995.148 1041.95 995.148C1042.37 995.148 1042.72 995.298 1043 995.598C1043.3 995.897 1043.45 996.249 1043.45 996.652C1043.45 997.056 1043.3 997.408 1043 997.707C1042.7 998.007 1042.35 998.156 1041.95 998.156C1041.53 998.156 1041.17 998.007 1040.88 997.707C1040.59 997.421 1040.45 997.069 1040.45 996.652ZM1049.61 996.398L1050.27 996.496L1050.91 996.574C1051.72 996.574 1052.56 996.379 1053.43 995.988C1054.31 995.598 1054.91 995.22 1055.25 994.855C1056.16 993.892 1056.7 992.857 1056.85 991.75C1056.9 991.568 1056.93 991.353 1056.93 991.105L1056.95 990.441L1056.89 989.289L1056.66 988.02C1056.42 986.73 1056.09 985.806 1055.66 985.246C1055.39 984.803 1055.25 984.38 1055.25 983.977C1055.25 983.521 1055.42 983.078 1055.76 982.648C1056.1 982.219 1056.49 982.004 1056.93 982.004C1057.23 982.043 1057.43 982.134 1057.54 982.277C1058.39 983.41 1059.03 984.823 1059.45 986.516C1059.55 986.932 1059.65 987.466 1059.74 988.117C1059.82 988.703 1059.86 989.257 1059.86 989.777C1059.86 990.467 1059.81 991.158 1059.7 991.848C1059.42 993.827 1058.62 995.48 1057.32 996.809C1055.97 998.189 1054.31 998.983 1052.36 999.191C1051.58 999.27 1051.01 999.302 1050.64 999.289L1050 999.27C1049.58 999.257 1049.29 999.237 1049.12 999.211C1048.09 999.029 1047.41 998.807 1047.09 998.547C1046.85 998.299 1046.73 997.902 1046.73 997.355L1046.79 996.691C1046.92 996.066 1047.11 995.754 1047.36 995.754C1047.66 995.754 1048.03 995.832 1048.47 995.988L1049.61 996.398ZM1054.64 977.062C1054.64 977.479 1054.79 977.837 1055.09 978.137C1055.41 978.423 1055.76 978.566 1056.15 978.566C1056.55 978.566 1056.9 978.417 1057.2 978.117C1057.5 977.818 1057.65 977.466 1057.65 977.062C1057.65 976.659 1057.5 976.307 1057.2 976.008C1056.9 975.708 1056.55 975.559 1056.15 975.559C1055.72 975.559 1055.36 975.708 1055.07 976.008C1054.79 976.294 1054.64 976.646 1054.64 977.062ZM1066.73 991.848C1066.73 993.267 1065.95 994.66 1064.37 996.027L1063.96 995.598C1064.51 995.129 1064.9 994.699 1065.15 994.309C1065.53 993.749 1065.71 993.234 1065.68 992.766L1065.66 992.473C1064.59 992.473 1064.06 992.043 1064.06 991.184C1064.06 990.858 1064.18 990.578 1064.43 990.344C1064.69 990.109 1064.98 989.992 1065.31 989.992C1065.93 989.992 1066.38 990.357 1066.64 991.086L1066.73 991.848ZM1096.17 993C1094.7 993 1093.49 992.714 1092.54 992.141C1092.16 994.081 1091.33 995.676 1090.05 996.926C1088.78 998.176 1087.17 998.931 1085.23 999.191C1085.04 999.217 1084.67 999.237 1084.14 999.25L1083.45 999.27L1081.97 999.211C1081.02 999.081 1080.35 998.859 1079.96 998.547C1079.72 998.339 1079.61 997.941 1079.61 997.355C1079.61 996.757 1079.68 996.307 1079.84 996.008C1079.96 995.852 1080.09 995.767 1080.23 995.754C1080.53 995.754 1080.9 995.832 1081.34 995.988L1082.48 996.398L1082.73 996.418C1082.9 996.431 1083.03 996.457 1083.12 996.496L1083.79 996.574C1084.48 996.574 1085.25 996.405 1086.11 996.066C1087.02 995.728 1087.69 995.324 1088.12 994.855C1089.25 993.645 1089.82 992.173 1089.82 990.441C1089.82 989.66 1089.72 988.853 1089.53 988.02L1089.16 986.496C1089.07 986.079 1088.88 985.676 1088.59 985.285C1088.28 984.842 1088.12 984.406 1088.12 983.977C1088.12 983.482 1088.28 983.046 1088.59 982.668C1088.92 982.277 1089.32 982.056 1089.8 982.004C1090.06 982.004 1090.26 982.095 1090.41 982.277C1091.14 983.267 1091.77 984.68 1092.3 986.516C1092.47 987.076 1092.57 987.655 1092.61 988.254L1092.95 988.859C1093.24 989.263 1093.78 989.576 1094.55 989.797C1095.05 989.927 1095.6 989.992 1096.17 989.992V993ZM1104.41 989.289C1103.25 991.763 1101.47 993 1099.06 993H1095.35V989.992H1098.8C1099.89 989.992 1100.82 989.458 1101.62 988.391C1102.28 987.492 1102.61 986.646 1102.61 985.852C1102.61 985.682 1102.6 985.572 1102.57 985.52L1101.13 982.121C1101.13 981.9 1101.34 981.809 1101.77 981.848L1102.26 981.887L1102.46 981.945C1103.42 982.154 1103.96 982.355 1104.08 982.551L1104.18 982.746C1104.33 983.254 1104.51 983.749 1104.72 984.23C1104.81 984.426 1105.02 984.888 1105.35 985.617C1105.58 986.164 1106.03 987.115 1106.7 988.469L1107.73 990.617C1108.76 987.896 1109.66 985.135 1110.43 982.336L1110.5 982.219C1110.58 981.958 1110.82 981.841 1111.21 981.867L1112.01 981.945L1112.22 981.984C1112.95 982.128 1113.32 982.303 1113.32 982.512L1113.3 982.648V982.805C1112.97 984.003 1112.6 985.188 1112.18 986.359L1114.21 990.617C1115.24 987.896 1116.14 985.135 1116.91 982.336L1116.99 982.219C1117.07 981.958 1117.3 981.841 1117.69 981.867L1118.49 981.945L1118.71 981.984C1119.44 982.128 1119.8 982.303 1119.8 982.512L1119.78 982.648V982.805C1119.18 985.07 1118.51 987.062 1117.77 988.781C1117.67 989.055 1117.55 989.341 1117.44 989.641C1117.4 989.745 1117.2 990.168 1116.83 990.91C1116.58 991.431 1116.3 991.932 1115.97 992.414L1115.93 992.492C1115.7 992.831 1115.35 993 1114.9 993L1114.23 992.922L1113.96 992.863C1113.31 992.772 1112.84 992.557 1112.55 992.219L1112.48 992.102C1112.27 991.854 1111.78 990.982 1111.01 989.484C1110.45 990.747 1109.94 991.724 1109.49 992.414L1109.45 992.492C1109.21 992.831 1108.87 993 1108.41 993L1107.75 992.922L1107.46 992.863C1106.82 992.772 1106.36 992.557 1106.07 992.219L1105.99 992.102C1105.73 991.724 1105.2 990.786 1104.41 989.289ZM1123.12 993C1120.95 993 1119.23 992.284 1117.98 990.852C1117.01 989.719 1116.52 988.527 1116.52 987.277C1116.52 986.939 1116.57 986.678 1116.68 986.496C1117.27 985.546 1117.94 985.07 1118.67 985.07C1118.82 985.07 1118.92 985.155 1118.96 985.324L1118.92 985.598L1118.9 985.852C1118.84 986.581 1119.16 987.434 1119.86 988.41C1120.22 988.918 1120.71 989.309 1121.3 989.582C1121.9 989.855 1122.51 989.992 1123.12 989.992V993ZM1126.44 986.848L1125.58 987.395L1125.43 987.434C1124.93 987.434 1124.68 986.867 1124.68 985.734C1124.68 985.357 1124.74 985.031 1124.86 984.758L1124.8 984.465C1124.8 984.178 1125.02 984.035 1125.45 984.035C1126.25 983.632 1127.37 983.189 1128.79 982.707C1130.39 982.16 1131.73 981.887 1132.81 981.887C1134.63 981.887 1136.07 982.225 1137.12 982.902C1138.27 983.632 1138.97 984.628 1139.21 985.891L1139.31 986.457L1139.33 987.004C1139.42 989.191 1138.14 991.047 1135.48 992.57C1134.99 992.857 1134.64 993 1134.45 993C1134.25 993 1134.07 992.935 1133.9 992.805L1133.69 992.844C1133.61 992.844 1133.51 992.811 1133.39 992.746C1132.43 992.186 1130.96 991.034 1128.98 989.289L1128.94 989.426C1128.52 990.52 1127.67 991.418 1126.36 992.121C1125.84 992.395 1125.3 992.616 1124.72 992.785C1124.35 992.889 1123.8 992.954 1123.1 992.98L1122.3 993V990.012L1123.63 989.992C1124.32 989.979 1124.98 989.751 1125.6 989.309C1126.19 988.892 1126.51 988.228 1126.58 987.316L1126.6 987.023L1126.44 986.848ZM1134.29 989.699L1134.76 989.387C1136 988.605 1136.62 987.681 1136.62 986.613L1136.54 986.086C1136.33 985.201 1135.39 984.758 1133.71 984.758C1132.56 984.758 1131.17 985.012 1129.55 985.52L1129.14 985.656L1129.2 985.812L1130.23 986.73L1131.73 987.922L1134.29 989.699ZM1144.12 991.242C1143.91 989.341 1143.8 987.993 1143.8 987.199C1143.8 986.678 1143.79 986.086 1143.75 985.422C1143.68 983.885 1143.65 982.766 1143.65 982.062L1143.63 979.289L1143.69 976.828L1143.86 972.414C1143.86 972.049 1144.11 971.867 1144.61 971.867L1145.45 971.984C1145.81 972.036 1146.15 972.173 1146.48 972.395C1146.73 972.564 1146.87 972.792 1146.91 973.078L1146.89 973.312V975.871L1146.79 981.008C1146.77 981.737 1146.8 982.844 1146.89 984.328L1147.12 988.332L1147.28 992.062C1147.28 992.414 1147.23 992.661 1147.12 992.805C1147.02 992.948 1146.82 993.02 1146.52 993.02L1145.72 992.941C1144.9 992.837 1144.4 992.44 1144.23 991.75L1144.16 991.34L1144.12 991.242ZM1152.34 996.398L1153 996.496L1153.65 996.574C1154.46 996.574 1155.3 996.379 1156.17 995.988C1157.04 995.598 1157.65 995.22 1157.98 994.855C1158.9 993.892 1159.43 992.857 1159.59 991.75C1159.64 991.568 1159.66 991.353 1159.66 991.105L1159.68 990.441L1159.62 989.289L1159.39 988.02C1159.16 986.73 1158.82 985.806 1158.39 985.246C1158.12 984.803 1157.98 984.38 1157.98 983.977C1157.98 983.521 1158.15 983.078 1158.49 982.648C1158.83 982.219 1159.22 982.004 1159.66 982.004C1159.96 982.043 1160.17 982.134 1160.27 982.277C1161.13 983.41 1161.77 984.823 1162.18 986.516C1162.29 986.932 1162.39 987.466 1162.48 988.117C1162.55 988.703 1162.59 989.257 1162.59 989.777C1162.59 990.467 1162.54 991.158 1162.44 991.848C1162.15 993.827 1161.36 995.48 1160.05 996.809C1158.7 998.189 1157.05 998.983 1155.09 999.191C1154.31 999.27 1153.74 999.302 1153.38 999.289L1152.73 999.27C1152.31 999.257 1152.02 999.237 1151.85 999.211C1150.82 999.029 1150.15 998.807 1149.82 998.547C1149.59 998.299 1149.47 997.902 1149.47 997.355L1149.53 996.691C1149.66 996.066 1149.85 995.754 1150.09 995.754C1150.39 995.754 1150.76 995.832 1151.21 995.988L1152.34 996.398ZM1171.48 983.879C1171.48 984.23 1171.34 984.536 1171.07 984.797C1170.81 985.057 1170.5 985.188 1170.13 985.188C1169.79 985.188 1169.47 985.064 1169.16 984.816C1168.92 984.569 1168.8 984.257 1168.8 983.879C1168.8 983.501 1168.93 983.176 1169.2 982.902C1169.46 982.616 1169.77 982.473 1170.13 982.473C1170.47 982.473 1170.78 982.603 1171.07 982.863C1171.34 983.163 1171.48 983.501 1171.48 983.879ZM1171.48 990.988C1171.48 991.939 1171.03 992.414 1170.13 992.414C1169.77 992.414 1169.46 992.271 1169.2 991.984C1168.93 991.685 1168.8 991.353 1168.8 990.988C1168.8 990.65 1168.93 990.35 1169.2 990.09C1169.46 989.816 1169.77 989.68 1170.13 989.68C1170.46 989.68 1170.76 989.816 1171.05 990.09C1171.34 990.35 1171.48 990.65 1171.48 990.988ZM1198.16 992.102C1198.16 993.221 1197.96 994.074 1197.55 994.66C1196.49 996.21 1194.96 997.395 1192.96 998.215C1191.42 998.866 1189.48 999.191 1187.16 999.191C1185.17 999.191 1183.38 998.684 1181.77 997.668C1180.24 996.691 1179.2 995.715 1178.67 994.738C1178.03 993.54 1177.71 992.193 1177.71 990.695C1177.71 989.628 1178.12 988.371 1178.94 986.926C1179.36 986.184 1180.11 985.487 1181.19 984.836C1182.1 984.289 1182.9 984.016 1183.59 984.016C1183.85 984.016 1184.03 984.029 1184.12 984.055C1184.64 984.172 1184.88 984.634 1184.84 985.441L1184.82 985.949V986.203C1184.82 986.529 1184.74 986.887 1184.59 987.277L1183.1 987.922C1182.05 988.391 1181.38 988.905 1181.09 989.465C1180.84 989.921 1180.72 990.37 1180.72 990.812C1180.72 992.167 1181.44 993.339 1182.89 994.328C1184.35 995.331 1186.29 995.832 1188.73 995.832C1190.94 995.832 1192.7 995.35 1194.02 994.387C1195.14 993.579 1195.7 992.642 1195.7 991.574C1195.7 991.027 1194.82 990.201 1193.06 989.094C1191.07 987.831 1189.82 986.717 1189.31 985.754C1188.75 984.712 1188.47 983.319 1188.47 981.574C1188.6 980.155 1189.16 979.061 1190.13 978.293C1190.46 978.02 1190.85 977.818 1191.3 977.688C1191.7 977.57 1192.17 977.512 1192.73 977.512C1193.62 977.512 1194.68 977.902 1195.91 978.684C1197.18 979.504 1197.95 980.22 1198.22 980.832L1198.32 981.242C1198.32 981.568 1198.18 981.893 1197.91 982.219L1197.79 982.336L1197.26 982.941C1197.21 982.993 1197.1 983.033 1196.93 983.059C1196.68 983.059 1196.32 982.857 1195.84 982.453L1195 981.75C1194.4 981.229 1193.72 980.884 1192.96 980.715L1192.34 980.676C1191.88 980.637 1191.51 980.826 1191.21 981.242C1190.96 981.607 1190.84 982.03 1190.84 982.512C1190.84 983.241 1191.05 983.885 1191.48 984.445C1191.78 984.836 1192.58 985.441 1193.88 986.262C1194.52 986.652 1195.09 987.036 1195.58 987.414C1196.09 987.792 1196.49 988.143 1196.77 988.469C1197.7 989.51 1198.16 990.721 1198.16 992.102ZM1217.07 993C1215.6 993 1214.38 992.714 1213.43 992.141C1213.06 994.081 1212.23 995.676 1210.95 996.926C1209.68 998.176 1208.07 998.931 1206.13 999.191C1205.93 999.217 1205.57 999.237 1205.04 999.25L1204.35 999.27L1202.87 999.211C1201.92 999.081 1201.25 998.859 1200.86 998.547C1200.62 998.339 1200.5 997.941 1200.5 997.355C1200.5 996.757 1200.58 996.307 1200.74 996.008C1200.86 995.852 1200.99 995.767 1201.13 995.754C1201.43 995.754 1201.8 995.832 1202.24 995.988L1203.38 996.398L1203.63 996.418C1203.8 996.431 1203.93 996.457 1204.02 996.496L1204.68 996.574C1205.37 996.574 1206.15 996.405 1207.01 996.066C1207.92 995.728 1208.59 995.324 1209.02 994.855C1210.15 993.645 1210.72 992.173 1210.72 990.441C1210.72 989.66 1210.62 988.853 1210.43 988.02L1210.05 986.496C1209.96 986.079 1209.77 985.676 1209.49 985.285C1209.18 984.842 1209.02 984.406 1209.02 983.977C1209.02 983.482 1209.18 983.046 1209.49 982.668C1209.81 982.277 1210.22 982.056 1210.7 982.004C1210.96 982.004 1211.16 982.095 1211.3 982.277C1212.03 983.267 1212.67 984.68 1213.2 986.516C1213.37 987.076 1213.47 987.655 1213.51 988.254L1213.84 988.859C1214.14 989.263 1214.68 989.576 1215.45 989.797C1215.95 989.927 1216.49 989.992 1217.07 989.992V993ZM1208.38 977.062C1208.38 976.672 1208.52 976.32 1208.8 976.008C1209.14 975.708 1209.51 975.559 1209.92 975.559C1210.28 975.559 1210.61 975.702 1210.91 975.988C1211.23 976.275 1211.38 976.633 1211.38 977.062C1211.38 977.453 1211.24 977.805 1210.95 978.117C1210.68 978.417 1210.33 978.566 1209.92 978.566C1209.54 978.566 1209.17 978.423 1208.8 978.137C1208.52 977.811 1208.38 977.453 1208.38 977.062ZM1231.36 989.543C1231.36 990.48 1231.09 991.281 1230.54 991.945C1229.96 992.648 1229.2 993 1228.28 993H1216.25V989.992H1228.28C1228.28 987.987 1227.48 986.242 1225.88 984.758C1224.82 983.768 1223.88 983.189 1223.06 983.02C1223.14 983.566 1222.86 983.84 1222.22 983.84C1221.83 983.84 1221.22 983.71 1220.39 983.449C1219.75 983.228 1219.38 983.072 1219.29 982.98C1219.21 982.876 1219.14 982.753 1219.06 982.609L1218.9 981.867L1218.8 981.164C1218.8 981.034 1218.82 980.949 1218.84 980.91C1218.84 980.507 1219.1 980.161 1219.61 979.875L1219.68 979.797L1225.7 976.047C1228.28 974.445 1230.24 973.104 1231.58 972.023C1231.66 971.997 1231.8 971.965 1232.01 971.926C1232.26 971.939 1232.52 972.186 1232.81 972.668L1232.87 972.785C1233.13 973.124 1233.26 973.417 1233.26 973.664C1233.26 973.977 1233.21 974.185 1233.12 974.289C1231.27 976.138 1228.39 978.137 1224.49 980.285C1225.73 980.663 1227.07 981.633 1228.53 983.195C1230.42 985.227 1231.36 987.342 1231.36 989.543ZM1252.14 993C1250.67 993 1249.46 992.714 1248.51 992.141C1248.13 994.081 1247.31 995.676 1246.03 996.926C1244.76 998.176 1243.15 998.931 1241.21 999.191C1241.01 999.217 1240.65 999.237 1240.11 999.25L1239.43 999.27L1237.95 999.211C1236.99 999.081 1236.32 998.859 1235.93 998.547C1235.7 998.339 1235.58 997.941 1235.58 997.355C1235.58 996.757 1235.66 996.307 1235.82 996.008C1235.93 995.852 1236.06 995.767 1236.21 995.754C1236.51 995.754 1236.88 995.832 1237.32 995.988L1238.45 996.398L1238.71 996.418C1238.88 996.431 1239.01 996.457 1239.1 996.496L1239.76 996.574C1240.45 996.574 1241.23 996.405 1242.09 996.066C1243 995.728 1243.67 995.324 1244.1 994.855C1245.23 993.645 1245.8 992.173 1245.8 990.441C1245.8 989.66 1245.7 988.853 1245.5 988.02L1245.13 986.496C1245.04 986.079 1244.85 985.676 1244.57 985.285C1244.25 984.842 1244.1 984.406 1244.1 983.977C1244.1 983.482 1244.25 983.046 1244.57 982.668C1244.89 982.277 1245.3 982.056 1245.78 982.004C1246.04 982.004 1246.24 982.095 1246.38 982.277C1247.11 983.267 1247.74 984.68 1248.28 986.516C1248.45 987.076 1248.55 987.655 1248.59 988.254L1248.92 988.859C1249.22 989.263 1249.76 989.576 1250.52 989.797C1251.03 989.927 1251.57 989.992 1252.14 989.992V993ZM1255.46 986.848L1254.61 987.395L1254.45 987.434C1253.95 987.434 1253.71 986.867 1253.71 985.734C1253.71 985.357 1253.77 985.031 1253.88 984.758L1253.82 984.465C1253.82 984.178 1254.04 984.035 1254.47 984.035C1255.28 983.632 1256.39 983.189 1257.81 982.707C1259.41 982.16 1260.75 981.887 1261.83 981.887C1263.65 981.887 1265.09 982.225 1266.15 982.902C1267.29 983.632 1267.99 984.628 1268.24 985.891L1268.34 986.457L1268.36 987.004C1268.45 989.191 1267.16 991.047 1264.51 992.57C1264.01 992.857 1263.67 993 1263.47 993C1263.28 993 1263.1 992.935 1262.93 992.805L1262.71 992.844C1262.63 992.844 1262.54 992.811 1262.42 992.746C1261.45 992.186 1259.98 991.034 1258 989.289L1257.96 989.426C1257.55 990.52 1256.69 991.418 1255.39 992.121C1254.87 992.395 1254.32 992.616 1253.75 992.785C1253.37 992.889 1252.83 992.954 1252.12 992.98L1251.32 993V990.012L1252.65 989.992C1253.34 989.979 1254 989.751 1254.62 989.309C1255.21 988.892 1255.54 988.228 1255.6 987.316L1255.62 987.023L1255.46 986.848ZM1263.32 989.699L1263.79 989.387C1265.02 988.605 1265.64 987.681 1265.64 986.613L1265.56 986.086C1265.35 985.201 1264.41 984.758 1262.73 984.758C1261.58 984.758 1260.2 985.012 1258.57 985.52L1258.16 985.656L1258.22 985.812L1259.25 986.73L1260.76 987.922L1263.32 989.699ZM1295.8 986.848L1295.64 987.023L1295.66 987.316C1295.7 987.681 1295.76 988 1295.86 988.273C1296.13 989.094 1296.69 989.608 1297.54 989.816C1298.04 989.934 1298.4 989.992 1298.61 989.992L1299.96 990.012V993L1299.37 992.98C1298.98 992.967 1298.67 992.948 1298.45 992.922C1297.71 992.818 1296.85 992.551 1295.88 992.121C1294.59 991.405 1293.73 990.507 1293.3 989.426L1293.26 989.289C1291.19 991.086 1289.72 992.238 1288.86 992.746C1288.76 992.811 1288.65 992.844 1288.55 992.844L1288.34 992.805C1288.18 992.935 1288 993 1287.81 993C1287.52 992.948 1287.17 992.805 1286.75 992.57C1284.19 991.099 1282.91 989.243 1282.91 987.004C1282.91 986.6 1282.95 986.229 1283.04 985.891C1283.72 983.221 1285.85 981.887 1289.43 981.887C1290.32 981.887 1291.57 982.134 1293.2 982.629C1294.7 983.098 1295.9 983.566 1296.81 984.035C1297.24 984.035 1297.46 984.178 1297.46 984.465L1297.38 984.758C1297.5 985.031 1297.55 985.357 1297.55 985.734C1297.55 986.867 1297.31 987.434 1296.83 987.434L1296.66 987.395L1295.8 986.848ZM1287.95 989.699C1288.36 989.387 1288.64 989.185 1288.77 989.094C1289.09 988.872 1289.33 988.716 1289.49 988.625L1290.5 987.922C1291.27 987.349 1291.8 986.932 1292.09 986.672C1292.53 986.294 1292.85 986.008 1293.04 985.812L1293.1 985.656L1292.71 985.52C1292.14 985.337 1291.75 985.227 1291.56 985.188C1290.46 984.901 1289.46 984.758 1288.53 984.758C1286.84 984.758 1285.89 985.201 1285.7 986.086L1285.64 986.594C1285.64 987.674 1286.25 988.605 1287.48 989.387L1287.95 989.699ZM1302.16 996.652C1302.16 996.184 1302.31 995.812 1302.61 995.539C1302.93 995.279 1303.28 995.148 1303.67 995.148C1304.08 995.148 1304.44 995.292 1304.72 995.578C1305.02 995.878 1305.17 996.236 1305.17 996.652C1305.17 997.056 1305.02 997.408 1304.72 997.707C1304.42 998.007 1304.07 998.156 1303.67 998.156C1303.26 998.156 1302.91 998.007 1302.61 997.707C1302.31 997.408 1302.16 997.056 1302.16 996.652ZM1307.95 993C1306.02 993 1304.54 992.362 1303.51 991.086C1302.51 992.362 1301.05 993 1299.14 993V989.992C1299.93 989.992 1300.64 989.758 1301.27 989.289C1301.75 988.911 1302.04 988.339 1302.14 987.57L1302.12 986.809V984.836C1302.1 984.602 1302.09 984.445 1302.09 984.367C1302.09 983.964 1302.03 983.573 1301.93 983.195L1301.87 982.297L1301.89 982.121C1301.89 981.757 1302.12 981.574 1302.59 981.574L1303.38 981.691C1303.7 981.743 1304.02 981.88 1304.33 982.102C1304.59 982.297 1304.72 982.531 1304.72 982.805L1304.7 983.039V983.742L1304.76 984.445L1304.9 985.422C1304.92 985.63 1304.94 986.092 1304.94 986.809V987.18L1304.9 987.57C1304.98 988.312 1305.28 988.885 1305.8 989.289L1306.46 989.777L1307.11 989.934L1307.95 989.992V993ZM1316.29 986.184C1317.8 984.322 1318.55 982.883 1318.55 981.867C1318.55 980.917 1317.95 980.441 1316.73 980.441C1316.21 980.441 1315.69 980.559 1315.17 980.793C1315.02 980.858 1314.81 980.969 1314.57 981.125L1313.55 981.75C1313.13 981.997 1312.78 982.121 1312.48 982.121L1312.59 982.238L1316.29 986.184ZM1307.11 989.992H1312.28C1312.92 989.536 1313.54 989.022 1314.16 988.449C1313.99 988.28 1312.63 986.815 1310.07 984.055L1309.8 983.762C1309.71 983.645 1309.66 983.488 1309.66 983.293C1309.69 983.085 1309.85 982.863 1310.15 982.629L1310.5 982.414L1310.62 982.316C1310.74 982.225 1310.91 982.128 1311.15 982.023L1311.64 981.867H1312.07L1311.6 981.145C1311.43 980.793 1311.34 980.52 1311.34 980.324C1311.33 979.908 1311.7 979.426 1312.46 978.879C1312.61 978.775 1312.87 978.625 1313.24 978.43L1314.14 977.961C1315.1 977.453 1316.06 977.225 1317.01 977.277L1317.46 977.297C1318.39 977.336 1319.23 977.746 1319.96 978.527C1320.69 979.296 1321.05 980.448 1321.05 981.984C1321.05 982.635 1320.91 983.358 1320.62 984.152C1320.37 984.829 1319.95 985.643 1319.35 986.594L1318.88 987.355L1318.32 988.098L1320.07 989.992H1323.63V993H1318.84L1316.21 990.48C1315.28 991.418 1314.22 992.258 1313.02 993H1307.11V989.992ZM1331.87 989.289C1330.71 991.763 1328.93 993 1326.52 993H1322.81V989.992H1326.27C1327.35 989.992 1328.28 989.458 1329.08 988.391C1329.74 987.492 1330.07 986.646 1330.07 985.852C1330.07 985.682 1330.06 985.572 1330.04 985.52L1328.59 982.121C1328.59 981.9 1328.8 981.809 1329.23 981.848L1329.72 981.887L1329.92 981.945C1330.88 982.154 1331.42 982.355 1331.54 982.551L1331.64 982.746C1331.79 983.254 1331.98 983.749 1332.18 984.23C1332.27 984.426 1332.48 984.888 1332.81 985.617C1333.04 986.164 1333.49 987.115 1334.16 988.469L1335.19 990.617C1336.22 987.896 1337.12 985.135 1337.89 982.336L1337.96 982.219C1338.04 981.958 1338.28 981.841 1338.67 981.867L1339.47 981.945L1339.68 981.984C1340.41 982.128 1340.78 982.303 1340.78 982.512L1340.76 982.648V982.805C1340.43 984.003 1340.06 985.188 1339.64 986.359L1341.68 990.617C1342.7 987.896 1343.6 985.135 1344.37 982.336L1344.45 982.219C1344.53 981.958 1344.76 981.841 1345.15 981.867L1345.95 981.945L1346.17 981.984C1346.9 982.128 1347.26 982.303 1347.26 982.512L1347.24 982.648V982.805C1346.64 985.07 1345.97 987.062 1345.23 988.781C1345.13 989.055 1345.02 989.341 1344.9 989.641C1344.86 989.745 1344.66 990.168 1344.29 990.91C1344.05 991.431 1343.76 991.932 1343.43 992.414L1343.39 992.492C1343.16 992.831 1342.82 993 1342.36 993L1341.7 992.922L1341.42 992.863C1340.77 992.772 1340.3 992.557 1340.02 992.219L1339.94 992.102C1339.73 991.854 1339.24 990.982 1338.47 989.484C1337.91 990.747 1337.4 991.724 1336.95 992.414L1336.91 992.492C1336.68 992.831 1336.33 993 1335.88 993L1335.21 992.922L1334.92 992.863C1334.28 992.772 1333.82 992.557 1333.53 992.219L1333.45 992.102C1333.19 991.724 1332.67 990.786 1331.87 989.289ZM1337.5 974.113C1337.5 973.697 1337.65 973.345 1337.95 973.059C1338.24 972.759 1338.6 972.609 1339 972.609C1339.42 972.609 1339.77 972.759 1340.05 973.059C1340.35 973.358 1340.5 973.71 1340.5 974.113C1340.5 974.504 1340.35 974.862 1340.05 975.188L1339.57 975.539L1339 975.617C1338.62 975.617 1338.26 975.474 1337.93 975.188C1337.64 974.875 1337.5 974.517 1337.5 974.113ZM1339 977.062C1339 977.466 1338.85 977.818 1338.55 978.117C1338.26 978.417 1337.91 978.566 1337.5 978.566C1337.12 978.566 1336.76 978.423 1336.42 978.137C1336.14 977.824 1335.99 977.466 1335.99 977.062C1335.99 976.646 1336.13 976.307 1336.4 976.047C1336.74 975.721 1337.11 975.559 1337.5 975.559C1337.91 975.559 1338.26 975.708 1338.55 976.008C1338.85 976.294 1339 976.646 1339 977.062C1339 976.646 1339.14 976.307 1339.41 976.047C1339.75 975.721 1340.11 975.559 1340.5 975.559C1340.92 975.559 1341.27 975.708 1341.56 976.008C1341.86 976.294 1342.01 976.646 1342.01 977.062C1342.01 977.466 1341.86 977.818 1341.56 978.117C1341.27 978.417 1340.92 978.566 1340.5 978.566C1340.13 978.566 1339.77 978.423 1339.43 978.137C1339.14 977.824 1339 977.466 1339 977.062Z" fill="#033393"/>
<path d="M565.276 983.148C565.276 984.252 565.144 985.332 564.88 986.388C564.64 987.444 564.256 988.404 563.728 989.268C563.2 990.108 562.552 990.792 561.784 991.32C561.016 991.824 560.104 992.076 559.048 992.076C557.944 992.076 557.068 991.764 556.42 991.14C555.796 990.492 555.412 989.76 555.268 988.944H555.088C554.656 989.832 554.02 990.576 553.18 991.176C552.34 991.776 551.284 992.076 550.012 992.076C548.188 992.076 546.772 991.464 545.764 990.24C544.78 989.016 544.288 987.396 544.288 985.38C544.288 983.796 544.6 982.404 545.224 981.204C545.848 979.98 546.724 979.02 547.852 978.324C549.004 977.628 550.36 977.28 551.92 977.28C552.976 977.28 554.008 977.376 555.016 977.568C556.048 977.736 556.852 977.928 557.428 978.144L557.068 985.452C557.044 985.884 557.032 986.196 557.032 986.388C557.032 986.556 557.032 986.676 557.032 986.748C557.032 987.996 557.248 988.824 557.68 989.232C558.136 989.64 558.664 989.844 559.264 989.844C560.008 989.844 560.632 989.544 561.136 988.944C561.664 988.32 562.06 987.504 562.324 986.496C562.612 985.464 562.756 984.336 562.756 983.112C562.756 980.88 562.3 978.996 561.388 977.46C560.5 975.9 559.264 974.712 557.68 973.896C556.12 973.08 554.344 972.672 552.352 972.672C550.312 972.672 548.5 972.996 546.916 973.644C545.332 974.292 544 975.204 542.92 976.38C541.864 977.556 541.06 978.948 540.508 980.556C539.956 982.14 539.68 983.892 539.68 985.812C539.68 988.164 540.1 990.168 540.94 991.824C541.78 993.456 543.004 994.704 544.612 995.568C546.244 996.408 548.236 996.828 550.588 996.828C552.052 996.828 553.444 996.66 554.764 996.324C556.108 996.012 557.296 995.664 558.328 995.28V997.728C557.296 998.16 556.132 998.508 554.836 998.772C553.564 999.06 552.148 999.204 550.588 999.204C547.756 999.204 545.332 998.676 543.316 997.62C541.3 996.564 539.752 995.052 538.672 993.084C537.616 991.092 537.088 988.704 537.088 985.92C537.088 983.688 537.436 981.624 538.132 979.728C538.828 977.808 539.836 976.152 541.156 974.76C542.476 973.344 544.072 972.252 545.944 971.484C547.84 970.692 549.976 970.296 552.352 970.296C554.224 970.296 555.94 970.596 557.5 971.196C559.084 971.772 560.452 972.624 561.604 973.752C562.78 974.856 563.68 976.2 564.304 977.784C564.952 979.368 565.276 981.156 565.276 983.148ZM547.096 985.452C547.096 986.988 547.396 988.104 547.996 988.8C548.62 989.496 549.448 989.844 550.48 989.844C551.824 989.844 552.784 989.34 553.36 988.332C553.96 987.324 554.308 986.016 554.404 984.408L554.62 979.908C554.308 979.812 553.912 979.728 553.432 979.656C552.952 979.584 552.46 979.548 551.956 979.548C550.78 979.548 549.832 979.836 549.112 980.412C548.392 980.988 547.876 981.732 547.564 982.644C547.252 983.532 547.096 984.468 547.096 985.452ZM583.003 990.672C583.003 991.92 582.691 992.964 582.067 993.804C581.443 994.644 580.555 995.28 579.403 995.712C578.251 996.144 576.883 996.36 575.299 996.36C573.955 996.36 572.791 996.252 571.807 996.036C570.847 995.82 569.995 995.52 569.251 995.136V992.256C570.019 992.64 570.943 993 572.023 993.336C573.127 993.648 574.243 993.804 575.371 993.804C576.979 993.804 578.143 993.552 578.863 993.048C579.583 992.52 579.943 991.824 579.943 990.96C579.943 990.48 579.811 990.048 579.547 989.664C579.283 989.28 578.803 988.896 578.107 988.512C577.435 988.128 576.463 987.696 575.191 987.216C573.943 986.736 572.875 986.256 571.987 985.776C571.099 985.296 570.415 984.72 569.935 984.048C569.455 983.376 569.215 982.512 569.215 981.456C569.215 979.824 569.875 978.564 571.195 977.676C572.539 976.788 574.291 976.344 576.451 976.344C577.627 976.344 578.719 976.464 579.727 976.704C580.759 976.92 581.719 977.232 582.607 977.64L581.527 980.16C580.999 979.92 580.435 979.716 579.835 979.548C579.259 979.356 578.671 979.212 578.071 979.116C577.471 978.996 576.859 978.936 576.235 978.936C574.939 978.936 573.943 979.152 573.247 979.584C572.575 979.992 572.239 980.556 572.239 981.276C572.239 981.804 572.395 982.26 572.707 982.644C573.019 983.004 573.535 983.364 574.255 983.724C574.999 984.06 575.983 984.468 577.207 984.948C578.431 985.404 579.475 985.872 580.339 986.352C581.203 986.832 581.863 987.42 582.319 988.116C582.775 988.788 583.003 989.64 583.003 990.672ZM594.973 976.38C597.325 976.38 599.065 976.896 600.193 977.928C601.321 978.96 601.885 980.604 601.885 982.86V996H599.581L598.969 993.264H598.825C598.273 993.96 597.697 994.548 597.097 995.028C596.521 995.484 595.849 995.82 595.081 996.036C594.337 996.252 593.425 996.36 592.345 996.36C591.193 996.36 590.149 996.156 589.213 995.748C588.301 995.34 587.581 994.716 587.053 993.876C586.525 993.012 586.261 991.932 586.261 990.636C586.261 988.716 587.017 987.24 588.529 986.208C590.041 985.152 592.369 984.576 595.513 984.48L598.789 984.372V983.22C598.789 981.612 598.441 980.496 597.745 979.872C597.049 979.248 596.065 978.936 594.793 978.936C593.785 978.936 592.825 979.092 591.913 979.404C591.001 979.692 590.149 980.028 589.357 980.412L588.385 978.036C589.225 977.58 590.221 977.196 591.373 976.884C592.525 976.548 593.725 976.38 594.973 976.38ZM595.909 986.676C593.509 986.772 591.841 987.156 590.905 987.828C589.993 988.5 589.537 989.448 589.537 990.672C589.537 991.752 589.861 992.544 590.509 993.048C591.181 993.552 592.033 993.804 593.065 993.804C594.697 993.804 596.053 993.36 597.133 992.472C598.213 991.56 598.753 990.168 598.753 988.296V986.568L595.909 986.676ZM611.013 976.668C611.013 977.124 610.989 977.592 610.941 978.072C610.917 978.552 610.881 978.984 610.833 979.368H611.049C611.457 978.696 611.973 978.144 612.597 977.712C613.221 977.28 613.917 976.956 614.685 976.74C615.453 976.5 616.245 976.38 617.061 976.38C618.621 976.38 619.917 976.632 620.949 977.136C622.005 977.616 622.797 978.372 623.325 979.404C623.853 980.436 624.117 981.78 624.117 983.436V996H620.985V983.652C620.985 982.092 620.637 980.928 619.941 980.16C619.245 979.392 618.153 979.008 616.665 979.008C615.225 979.008 614.097 979.284 613.281 979.836C612.465 980.364 611.877 981.156 611.517 982.212C611.181 983.244 611.013 984.516 611.013 986.028V996H607.845V968.64H611.013V976.668ZM637.551 976.344C639.207 976.344 640.623 976.704 641.799 977.424C642.999 978.144 643.911 979.164 644.535 980.484C645.183 981.78 645.507 983.304 645.507 985.056V986.964H632.295C632.343 989.148 632.895 990.816 633.951 991.968C635.031 993.096 636.531 993.66 638.451 993.66C639.675 993.66 640.755 993.552 641.691 993.336C642.651 993.096 643.635 992.76 644.643 992.328V995.1C643.659 995.532 642.687 995.844 641.727 996.036C640.767 996.252 639.627 996.36 638.307 996.36C636.483 996.36 634.863 995.988 633.447 995.244C632.055 994.5 630.963 993.396 630.171 991.932C629.403 990.444 629.019 988.632 629.019 986.496C629.019 984.384 629.367 982.572 630.063 981.06C630.783 979.548 631.779 978.384 633.051 977.568C634.347 976.752 635.847 976.344 637.551 976.344ZM637.515 978.936C636.003 978.936 634.803 979.428 633.915 980.412C633.051 981.372 632.535 982.716 632.367 984.444H642.195C642.195 983.34 642.027 982.38 641.691 981.564C641.355 980.748 640.839 980.112 640.143 979.656C639.471 979.176 638.595 978.936 637.515 978.936ZM653.587 996H650.419V968.64H653.587V996ZM672.697 1001.54H656.569V999.24H672.697V1001.54ZM696.865 976.344C699.049 976.344 700.681 976.908 701.761 978.036C702.841 979.14 703.381 980.94 703.381 983.436V996H700.249V983.58C700.249 982.068 699.925 980.928 699.277 980.16C698.653 979.392 697.669 979.008 696.325 979.008C694.453 979.008 693.109 979.548 692.293 980.628C691.501 981.708 691.105 983.28 691.105 985.344V996H687.973V983.58C687.973 982.572 687.829 981.732 687.541 981.06C687.253 980.364 686.821 979.848 686.245 979.512C685.669 979.176 684.925 979.008 684.013 979.008C682.717 979.008 681.697 979.284 680.953 979.836C680.209 980.364 679.669 981.144 679.333 982.176C679.021 983.208 678.865 984.48 678.865 985.992V996H675.697V976.704H678.253L678.721 979.332H678.901C679.309 978.66 679.801 978.108 680.377 977.676C680.977 977.22 681.637 976.884 682.357 976.668C683.077 976.452 683.821 976.344 684.589 976.344C686.077 976.344 687.313 976.608 688.297 977.136C689.305 977.664 690.037 978.48 690.493 979.584H690.673C691.321 978.48 692.197 977.664 693.301 977.136C694.429 976.608 695.617 976.344 696.865 976.344ZM716.649 976.38C719.001 976.38 720.741 976.896 721.869 977.928C722.997 978.96 723.561 980.604 723.561 982.86V996H721.257L720.645 993.264H720.501C719.949 993.96 719.373 994.548 718.773 995.028C718.197 995.484 717.525 995.82 716.757 996.036C716.013 996.252 715.101 996.36 714.021 996.36C712.869 996.36 711.825 996.156 710.889 995.748C709.977 995.34 709.257 994.716 708.729 993.876C708.201 993.012 707.937 991.932 707.937 990.636C707.937 988.716 708.693 987.24 710.205 986.208C711.717 985.152 714.045 984.576 717.189 984.48L720.465 984.372V983.22C720.465 981.612 720.117 980.496 719.421 979.872C718.725 979.248 717.741 978.936 716.469 978.936C715.461 978.936 714.501 979.092 713.589 979.404C712.677 979.692 711.825 980.028 711.033 980.412L710.061 978.036C710.901 977.58 711.897 977.196 713.049 976.884C714.201 976.548 715.401 976.38 716.649 976.38ZM717.585 986.676C715.185 986.772 713.517 987.156 712.581 987.828C711.669 988.5 711.213 989.448 711.213 990.672C711.213 991.752 711.537 992.544 712.185 993.048C712.857 993.552 713.709 993.804 714.741 993.804C716.373 993.804 717.729 993.36 718.809 992.472C719.889 991.56 720.429 990.168 720.429 988.296V986.568L717.585 986.676ZM738.521 976.344C738.881 976.344 739.265 976.368 739.673 976.416C740.105 976.44 740.477 976.488 740.789 976.56L740.393 979.476C740.081 979.404 739.733 979.344 739.349 979.296C738.989 979.248 738.641 979.224 738.305 979.224C737.561 979.224 736.853 979.38 736.181 979.692C735.509 980.004 734.909 980.448 734.381 981.024C733.853 981.576 733.433 982.248 733.121 983.04C732.833 983.832 732.689 984.72 732.689 985.704V996H729.521V976.704H732.113L732.473 980.232H732.617C733.025 979.512 733.517 978.864 734.093 978.288C734.669 977.688 735.329 977.22 736.073 976.884C736.817 976.524 737.633 976.344 738.521 976.344ZM747.524 982.932C747.524 983.316 747.5 983.82 747.452 984.444C747.428 985.068 747.404 985.608 747.38 986.064H747.524C747.668 985.872 747.884 985.596 748.172 985.236C748.46 984.876 748.748 984.516 749.036 984.156C749.348 983.772 749.612 983.46 749.828 983.22L755.984 976.704H759.692L751.88 984.948L760.232 996H756.416L749.72 987L747.524 988.908V996H744.392V968.64H747.524V982.932ZM771.075 976.344C772.731 976.344 774.147 976.704 775.323 977.424C776.523 978.144 777.435 979.164 778.059 980.484C778.707 981.78 779.031 983.304 779.031 985.056V986.964H765.819C765.867 989.148 766.419 990.816 767.475 991.968C768.555 993.096 770.055 993.66 771.975 993.66C773.199 993.66 774.279 993.552 775.215 993.336C776.175 993.096 777.159 992.76 778.167 992.328V995.1C777.183 995.532 776.211 995.844 775.251 996.036C774.291 996.252 773.151 996.36 771.831 996.36C770.007 996.36 768.387 995.988 766.971 995.244C765.579 994.5 764.487 993.396 763.695 991.932C762.927 990.444 762.543 988.632 762.543 986.496C762.543 984.384 762.891 982.572 763.587 981.06C764.307 979.548 765.303 978.384 766.575 977.568C767.871 976.752 769.371 976.344 771.075 976.344ZM771.039 978.936C769.527 978.936 768.327 979.428 767.439 980.412C766.575 981.372 766.059 982.716 765.891 984.444H775.719C775.719 983.34 775.551 982.38 775.215 981.564C774.879 980.748 774.363 980.112 773.667 979.656C772.995 979.176 772.119 978.936 771.039 978.936ZM790.387 993.768C790.867 993.768 791.359 993.732 791.863 993.66C792.367 993.564 792.775 993.468 793.087 993.372V995.784C792.751 995.952 792.271 996.084 791.647 996.18C791.023 996.3 790.423 996.36 789.847 996.36C788.839 996.36 787.903 996.192 787.039 995.856C786.199 995.496 785.515 994.884 784.987 994.02C784.459 993.156 784.195 991.944 784.195 990.384V979.152H781.459V977.64L784.231 976.38L785.491 972.276H787.363V976.704H792.943V979.152H787.363V990.312C787.363 991.488 787.639 992.364 788.191 992.94C788.767 993.492 789.499 993.768 790.387 993.768Z" fill="#033393"/>
<defs>
<clipPath id="clip0_1_2">
<rect width="39" height="34" fill="white" transform="translate(537 17)"/>
</clipPath>
<clipPath id="clip1_1_2">
<rect width="57" height="45" fill="white" transform="translate(1347 15)"/>
</clipPath>
<clipPath id="clip2_1_2">
<rect width="36" height="35" fill="white" transform="translate(72 965)"/>
</clipPath>
<clipPath id="clip3_1_2">
<rect width="40" height="39" fill="white" transform="translate(475 965)"/>
</clipPath>
<clipPath id="clip4_1_2">
<rect width="34" height="37" fill="white" transform="translate(1356 965)"/>
</clipPath>
</defs>
</svg>
